<svg xmlns="http://www.w3.org/2000/svg" viewBox="0 0 85.52 108.15"><defs><style>.cls-1{fill:#fff;}.cls-2{fill:#ff0;}.cls-3{fill:aqua;}.cls-4{fill:#f0f;}.cls-5{fill:none;stroke:#fff;stroke-miterlimit:10;stroke-width:0.5px;}</style></defs><title>shanes big brain</title><g id="Layer_2" data-name="Layer 2"><g id="Layer_8" data-name="Layer 8"><path class="cls-1" d="M80.1,60.4c.16-.07.33-.17.49-.26s.56-.33.77-.49a2,2,0,0,1,.15.34A3.66,3.66,0,0,1,80.1,60.4Z" transform="translate(-0.77 -0.39)"/><path class="cls-2" d="M78.33,40.7a6.34,6.34,0,0,0,1.13-1.91,5.19,5.19,0,0,0,.34-1.42,5.72,5.72,0,0,0,0-1.09l.75,0a2.88,2.88,0,0,0,.16.86c.45,1.4,1.31,1.46,2.2,2.73.64.9.86,2.5,1.3,5.71.22,1.61.2,2,.25,2.49a4,4,0,0,0-1.42-2.23l-1.29-.87c-.68-.45-.87-.59-1-.86s-.15-.44-.35-1.21a4.64,4.64,0,0,0-.47-1.39A2.19,2.19,0,0,0,78.33,40.7Z" transform="translate(-0.77 -0.39)"/><path class="cls-1" d="M75.23,40.42a2.09,2.09,0,0,0,.84.46,2.29,2.29,0,0,0,1.06,0,2.92,2.92,0,0,0-.27.17,1.21,1.21,0,0,0-.48.56c-.09.39.19.71.1.78s-.43-.24-.78-.43a2.2,2.2,0,0,0-1.17-.23,11.18,11.18,0,0,0,.26-1.28q0-.35.06-.6h0A1.51,1.51,0,0,0,75.23,40.42Z" transform="translate(-0.77 -0.39)"/><path class="cls-3" d="M76.78,80.4a5.07,5.07,0,0,1-1.65,0A3.59,3.59,0,0,1,74,79.66c-.31-.27-.54-.5-.71-.67a.77.77,0,0,0,.27.07c.28,0,.33-.07,1.82-.79,1-.49,1.09-.49,1.23-.64.56-.62.16-1.16.66-2A2.93,2.93,0,0,1,79,74.31a2.88,2.88,0,0,1,1.82.14l2.54.06a3.71,3.71,0,0,1-.07,1.82c-.86,2.12-1.81,4.15-1.81,4.15l-.39.8-1.17,0c-.57.19-1,.36-1.3.48a1.19,1.19,0,0,1-.56.14,2,2,0,0,1-.66-.36l-.11-1.21Z" transform="translate(-0.77 -0.39)"/><path class="cls-4" d="M72.7,21.26h0Z" transform="translate(-0.77 -0.39)"/><path class="cls-3" d="M70.27,84.52a4.12,4.12,0,0,0,.52.24,4.4,4.4,0,0,0,1.67.31l1,1.87c-.91.47-1.53.94-3.06,1.79-.55.31-1.61.8-3.57,1.72l-1.29-2.18h0l1-1.42a7.42,7.42,0,0,0,1-1.76.76.76,0,0,0,.08-.21h0a2.73,2.73,0,0,1,.69-.3,3.85,3.85,0,0,1,1.33-.11l.63.06Z" transform="translate(-0.77 -0.39)"/><path class="cls-1" d="M70.71,20.61a2,2,0,0,0-.72,0,2.08,2.08,0,0,1,1.72-.17c.17.06.22.11,1,.85h0l-.4,0a3.83,3.83,0,0,1-.78-.26C71,20.73,70.94,20.68,70.71,20.61Z" transform="translate(-0.77 -0.39)"/><path class="cls-4" d="M69.15,68.28c-.41,1.28-1.69,1.84-1.55,2.07s1.22-.64,2.73-.52c1.18.11,1.32.72,2.34.65A4.65,4.65,0,0,0,75,69.31c.76-.53,1.18-.83,1.43-1.43a2.3,2.3,0,0,0,.16-1.39,1.58,1.58,0,0,1,.43-.43,2.15,2.15,0,0,1,1.74,0,3,3,0,0,1,1.5.92,3,3,0,0,1,.65,1.62c.15.86-.09,1,.07,1.82a3.66,3.66,0,0,0,.58,1.49c.42.61.69.52,1.17,1.17a3.84,3.84,0,0,1,.65,1.43l-2.54-.06A2.88,2.88,0,0,0,79,74.31a2.93,2.93,0,0,0-1.74,1.3c-.5.86-.1,1.4-.66,2-.14.15-.19.15-1.23.64-1.49.72-1.54.81-1.82.79A.77.77,0,0,1,73.3,79h0c-.26-.13-.52-.46-1.47-1.23-.37-.3-.76-.58-1.55-1.16s-1.34-1-1.56-1.1c-1.33-.76-1.76-.45-2.86-1.18a3.3,3.3,0,0,1-1.37-1.42,3.49,3.49,0,0,1,.07-2.41c.5-1.6,1.32-1.84,2.08-3.44a8,8,0,0,0,.71-2.66l1.31-.2c0,.17,0,.36.08.56s0,.19,0,.28C69.16,67.49,69.36,67.65,69.15,68.28Z" transform="translate(-0.77 -0.39)"/><path class="cls-1" d="M68.64,62.5a1.61,1.61,0,0,1,.71-.72,2.17,2.17,0,0,1,1.36-.06,2.73,2.73,0,0,0-1.77,1.65,2.94,2.94,0,0,0-.21,1.37c0-.2-.06-.39-.08-.56-.06-.33-.1-.6-.14-.83h0A1.44,1.44,0,0,1,68.64,62.5Z" transform="translate(-0.77 -0.39)"/><path class="cls-3" d="M69.35,61.78a1.61,1.61,0,0,0-.71.72,1.44,1.44,0,0,0-.13.84A2,2,0,0,0,68,62.18a1.79,1.79,0,0,0-.38-.31h0a5.25,5.25,0,0,0,.72-.68,2.38,2.38,0,0,0,.74-1.26,3.56,3.56,0,0,0-.26-1.25c-.17-.62-.32-.92-.22-1s.33.2.7.26c.2,0,.46,0,1.16-.44A5.1,5.1,0,0,0,72,56.25a14.74,14.74,0,0,0,.87-1.52c.65-1,.78-1,.91-1.48.21-.73,0-1.14.3-1.51s.45-.13.87-.39a2.53,2.53,0,0,0,1-1.3,1,1,0,0,0,0-.16,7.27,7.27,0,0,1,3.79.25,6.66,6.66,0,0,1,2.12,1.25l2.3,1.25a.65.65,0,0,0-.09.44c.06.52.52.72.91,1.17.7.8.62,1.77.65,3.38a15.39,15.39,0,0,0,.14,2.09l-2,.4-1.15.16h-1a1.53,1.53,0,0,0-.07-.29,2,2,0,0,0-.15-.34c-.21.16-.47.3-.77.49s-.33.19-.49.26h0a8.48,8.48,0,0,1-1.71.65,7.41,7.41,0,0,1-1.69.25c-1,0-1.25-.17-1.34-.25-.39-.35-.4-.9-.48-.89s.19.85-.19,1.43-1.72.65-1.89.65c-.75,0-.8-.31-2.08-.52A2.17,2.17,0,0,0,69.35,61.78Z" transform="translate(-0.77 -0.39)"/><path class="cls-1" d="M70.27,84.52h0l-.63-.06a3.85,3.85,0,0,0-1.33.11,2.73,2.73,0,0,0-.69.3,2.89,2.89,0,0,0,.16-1.15h0a10.26,10.26,0,0,1,1.3.33A9.15,9.15,0,0,1,70.27,84.52Z" transform="translate(-0.77 -0.39)"/><path class="cls-4" d="M69.15,68.28c.21-.63,0-.79-.38-3.26,0-.09,0-.19,0-.28a2.94,2.94,0,0,1,.21-1.37,2.73,2.73,0,0,1,1.77-1.65c1.28.21,1.33.49,2.08.52.17,0,1.42.06,1.89-.65s.09-1.42.19-1.43.09.54.48.89c.09.08.37.29,1.34.25a7.41,7.41,0,0,0,1.69-.25,8.48,8.48,0,0,0,1.71-.65h0A3.66,3.66,0,0,0,81.51,60a1.53,1.53,0,0,1,.07.29h1l1.15-.16,2-.4A12.78,12.78,0,0,1,86,62.43a33,33,0,0,1-.39,5.19,30.81,30.81,0,0,1-.78,4.29,32.17,32.17,0,0,1-1.56,4.42,3.71,3.71,0,0,0,.07-1.82,3.84,3.84,0,0,0-.65-1.43c-.48-.65-.75-.56-1.17-1.17A3.66,3.66,0,0,1,81,70.42c-.16-.85.08-1-.07-1.82A3,3,0,0,0,80.26,67a3,3,0,0,0-1.5-.92,2.15,2.15,0,0,0-1.74,0,1.58,1.58,0,0,0-.43.43,2.3,2.3,0,0,1-.16,1.39c-.25.6-.67.9-1.43,1.43a4.65,4.65,0,0,1-2.33,1.17c-1,.07-1.16-.54-2.34-.65-1.51-.12-2.59.75-2.73.52S68.74,69.56,69.15,68.28Z" transform="translate(-0.77 -0.39)"/><path class="cls-3" d="M68.59,46.72a.77.77,0,0,0,.08-.64c.18-.21.48-.53.84-1s.49-.64.82-1A7.32,7.32,0,0,1,71.41,43a5.29,5.29,0,0,1,1.64-.86,6.11,6.11,0,0,1,1.48-.32A2.2,2.2,0,0,1,75.7,42c.35.19.67.52.78.43s-.19-.39-.1-.78a1.21,1.21,0,0,1,.48-.56,2.92,2.92,0,0,1,.27-.17,2.39,2.39,0,0,1,.81-.22,2.54,2.54,0,0,1,.39,0,2.19,2.19,0,0,1,1.57.78,4.64,4.64,0,0,1,.47,1.39c.2.77.16.91.35,1.21s.36.41,1,.86l1.29.87A4,4,0,0,1,84.47,48h0a6,6,0,0,0,.14.87c.27,1.21.56,1.81.26,2.6a9.64,9.64,0,0,1-.69,1.12l-2.3-1.25a6.66,6.66,0,0,0-2.12-1.25A7.27,7.27,0,0,0,76,49.89a1,1,0,0,1,0,.16,2.53,2.53,0,0,1-1,1.3c-.42.26-.62.13-.87.39s-.09.78-.3,1.51c-.13.47-.26.43-.91,1.48A14.74,14.74,0,0,1,72,56.25a5.1,5.1,0,0,1-1.56,1.24c-.7.45-1,.47-1.16.44-.37-.06-.58-.34-.7-.26s0,.38.22,1a3.56,3.56,0,0,1,.26,1.25,2.38,2.38,0,0,1-.74,1.26,5.25,5.25,0,0,1-.72.68h0a3,3,0,0,0-1.18-.48,3.87,3.87,0,0,0-2.08.13,5.39,5.39,0,0,1-1-.65c-.45-.36-.66-.66-.85-.66L64,57.8h0a25.67,25.67,0,0,0-.78-3.68,3.11,3.11,0,0,0-.78-1.47,2.78,2.78,0,0,0-.73-.56c.35-.08.31-.3,1.21-1.3a3.86,3.86,0,0,0,.89-1.12l.79-1.14.83-.6a6.51,6.51,0,0,1,1.9-.87C68.07,46.88,68.4,47,68.59,46.72Z" transform="translate(-0.77 -0.39)"/><path class="cls-3" d="M69.41,17a3.15,3.15,0,0,0-1.1-.71c-.32-.11-.7-.2-.71-.2-.55-.11-.68-.07-.78-.19s.15-.66.26-1.24a2.54,2.54,0,0,0-.39-1.75l.56-.62c-.4-.25-.72-.48-1-.65a10.26,10.26,0,0,0-1.49-1,4.93,4.93,0,0,0-1.17-.39h0a1.34,1.34,0,0,1,.4,0c.36,0,.7.11.83-.09S64.69,9.25,64,8l-.87-1.48a6.88,6.88,0,0,1,1.39.18c.65.19,1.49.91,3.12,2.34a22.47,22.47,0,0,1,2.73,2.6,18.78,18.78,0,0,1,1.82,2.73,26.51,26.51,0,0,1,1.42,2.72c.9,2,.66,2.21,1.3,3.5,1,2,1.61,1.58,2.61,3.51a15,15,0,0,1,1.28,4.28c.22,1.16.4,2.34.4,2.34.1.71.13,1,.16,1.24a6.73,6.73,0,0,0-.62-.32,6.39,6.39,0,0,0-1.62-.59,4.28,4.28,0,0,0-2.21.39c-.81.33-1.1.65-1.3.52s.15-.89.2-2a6.25,6.25,0,0,0-.58-2.72,5.6,5.6,0,0,0-1.43-2.34,4.64,4.64,0,0,0-1.89-1,4.78,4.78,0,0,0-1.44-.12l-.05-1.55c.46,0,.47-1,1.39-1.55a1.07,1.07,0,0,1,.21-.13h0a2,2,0,0,1,.72,0c.23.07.24.12.82.37a3.83,3.83,0,0,0,.78.26l.4,0h0c-.07-.19-.16-.43-.29-.71a9,9,0,0,0-1-1.62,10.27,10.27,0,0,0-1.25-1.28Z" transform="translate(-0.77 -0.39)"/><path class="cls-1" d="M63.7,48.73a8,8,0,0,1-.47-3.57,6.11,6.11,0,0,1,.36,1.09c.06.27.14.57.25.91l.06.18c.07.21.13.36.15.42l.2.46a2.36,2.36,0,0,0,.12.26c0,.06.06.11.07.14l.12-.09-.79,1.14a1.19,1.19,0,0,0,.07-.27A1.37,1.37,0,0,0,63.7,48.73Z" transform="translate(-0.77 -0.39)"/><path class="cls-4" d="M68.31,16.27a3.15,3.15,0,0,1,1.1.71l.77.67a10.27,10.27,0,0,1,1.25,1.28,9,9,0,0,1,1,1.62c.13.28.22.52.29.71-.77-.74-.82-.79-1-.85a2.08,2.08,0,0,0-1.72.17h0a1.07,1.07,0,0,0-.21.13c-.92.6-.93,1.55-1.39,1.55l.05,1.55a4.78,4.78,0,0,1,1.44.12,4.64,4.64,0,0,1,1.89,1,5.6,5.6,0,0,1,1.43,2.34A6.25,6.25,0,0,1,73.77,30c0,1.13-.47,1.83-.2,2s.49-.19,1.3-.52a4.28,4.28,0,0,1,2.21-.39,6.39,6.39,0,0,1,1.62.59,6.73,6.73,0,0,1,.62.32c0,.15.06.27.1.46.28,1.15.58,1.36.9,2.46a4.79,4.79,0,0,1,.24,1.35l-.75,0a5.72,5.72,0,0,1,0,1.09,5.19,5.19,0,0,1-.34,1.42,6.34,6.34,0,0,1-1.13,1.91,2.54,2.54,0,0,0-.39,0,2.39,2.39,0,0,0-.81.22,2.29,2.29,0,0,1-1.06,0,2.09,2.09,0,0,1-.84-.46,1.51,1.51,0,0,1-.37-.53h0q0,.26-.06.6a11.18,11.18,0,0,1-.26,1.28,6.11,6.11,0,0,0-1.48.32,5.29,5.29,0,0,0-1.64.86,7.32,7.32,0,0,0-1.08,1.13c-.33.4-.43.55-.82,1s-.66.75-.84,1c0-.17-.1-.36-.16-.58-.57-2-.21-1.92-.7-3a4.25,4.25,0,0,0-1.29-1.91,3.62,3.62,0,0,0-1.82-.69,4.24,4.24,0,0,0-1.35.08l.23-.25c.39-.55.25-1.18,0-2.74a10,10,0,0,0-.92-3.5,4.3,4.3,0,0,0-1.16-1.55c-.6-.48-1.11-.55-1.18-.91a.43.43,0,0,1,0-.16c.07-.24.32-.57,1-1,0-.5-.08-.9-.12-1.23-.18-1.13-.39-1.37-.4-1.37-.46-.52-.89-.23-1.29-.65-.77-.81.5-2.28.39-4.54a7.25,7.25,0,0,0-.71-2.6,8.24,8.24,0,0,1,1.23-.52l.46-.14c.95-.24,1.16-.11,1.94-.38a4.28,4.28,0,0,0,.72-.32L62.93,17h0c-.25-.43-.43-.79-.56-1a4,4,0,0,0-.69-1.18,2.39,2.39,0,0,0-.65-.46,5,5,0,0,0,.52-.25,3.09,3.09,0,0,0,1.52-1.88,2.62,2.62,0,0,0,0-1,.08.08,0,0,0,0,0c0-.34-.08-.6.13-.81a.65.65,0,0,1,.46-.18h0a4.93,4.93,0,0,1,1.17.39,10.26,10.26,0,0,1,1.49,1c.23.17.55.4,1,.65l-.56.62a2.54,2.54,0,0,1,.39,1.75c-.11.58-.45,1-.26,1.24s.23.08.78.19C67.61,16.07,68,16.16,68.31,16.27Z" transform="translate(-0.77 -0.39)"/><path class="cls-1" d="M64,10.19a1.34,1.34,0,0,0-.4,0,.65.65,0,0,0-.46.18c-.21.21-.18.47-.13.81a9.86,9.86,0,0,0-.65-1.85,10.16,10.16,0,0,0-.84-1.5A15.77,15.77,0,0,1,63.38,9a1.6,1.6,0,0,1,.54.66A1.39,1.39,0,0,1,64,10.19Z" transform="translate(-0.77 -0.39)"/><path class="cls-1" d="M60.4,100.74a2.77,2.77,0,0,0,.33-1.29,1.73,1.73,0,0,0,.45.57,2.21,2.21,0,0,0,1.22.52l.52.08a3.2,3.2,0,0,1-2,.29A3.46,3.46,0,0,1,60.4,100.74Z" transform="translate(-0.77 -0.39)"/><path class="cls-1" d="M58,17.79a5.08,5.08,0,0,0,1,.49c.34.14.83.35,1.43.65a8.24,8.24,0,0,0-1.23.52,5.54,5.54,0,0,0-1.11-1.56Z" transform="translate(-0.77 -0.39)"/><path class="cls-1" d="M58.9,41.53a13.29,13.29,0,0,0,.18-1.89,6.91,6.91,0,0,1,.28.78,6.17,6.17,0,0,1,.19,1.63v0c-.06.1-.11.21-.19.36a6,6,0,0,1-1,1.34c.17-.5.28-.94.3-1S58.81,42.13,58.9,41.53Z" transform="translate(-0.77 -0.39)"/><path class="cls-4" d="M69.29,98.66l-.49.43a3.5,3.5,0,0,1-1,.22c-.7,0-1.16-.19-1.78.07a1.35,1.35,0,0,0-.32.16c-.26.18-.33.41-.79.68a3.25,3.25,0,0,1-1.94.4h0l-.52-.08a2.21,2.21,0,0,1-1.22-.52,1.73,1.73,0,0,1-.45-.57,2.77,2.77,0,0,1-.33,1.29c-.38.67-1,1-2.28,1.5l-.84-1.89a2.92,2.92,0,0,1-.85-1.56,4.47,4.47,0,0,0-.19-1.36,1.47,1.47,0,0,0-.52-.78.81.81,0,0,0-.35-.14,7.67,7.67,0,0,0,1.52-.38,8.18,8.18,0,0,0,2.47-1.5c1-.82,1.17-1.24,1.22-1.48a2.63,2.63,0,0,0,0-1.12,2.5,2.5,0,0,0-.32-.84,2.3,2.3,0,0,0,.13-.58,1.68,1.68,0,0,0,.33.32,3.59,3.59,0,0,0,2.08.78,5.71,5.71,0,0,0,3.11-.84c.33-.14.63-.29.91-.42,2-.92,3-1.41,3.57-1.72,1.53-.85,2.15-1.32,3.06-1.79l-1-1.87a7.83,7.83,0,0,0,2.35-.43,3.6,3.6,0,0,0,1.62-.91,3.79,3.79,0,0,0,.59-.91A2.18,2.18,0,0,0,77.3,82c0-.27,0-.43,0-.48a.11.11,0,0,1,.08,0,2,2,0,0,0,.66.36,1.19,1.19,0,0,0,.56-.14c.29-.12.73-.29,1.3-.48l1.17,0a14.61,14.61,0,0,0-.79,1.92c-.3,1-.28,1.24-.64,2.22a9.07,9.07,0,0,1-.86,1.89,4.07,4.07,0,0,1-.32.44c-.64.84-.88.64-1.81,1.56a16.19,16.19,0,0,0-2,2.72c-.72,1.14-1,1.69-1.29,2.08A20.44,20.44,0,0,1,69.29,98.66Z" transform="translate(-0.77 -0.39)"/><path class="cls-3" d="M57.86,81.39a6.7,6.7,0,0,0,1.69-2.21c.23-.43.46-.84.65-1.23a10.4,10.4,0,0,0-.32,1.56c-.13.91-.18,1.37.06,1.69s.63.33,1.56.52a8.64,8.64,0,0,0,1.75.2c.46,0,.4-.07.85-.08a9.67,9.67,0,0,1,2,.26c.85.18,1,.26,1.16.4a1.48,1.48,0,0,1,.46.84,1.35,1.35,0,0,1,0,.39,2.89,2.89,0,0,1-.16,1.15h0a.76.76,0,0,1-.08.21,7.42,7.42,0,0,1-1,1.76l-1,1.42h0l1.29,2.18c-.28.13-.58.28-.91.42a5.71,5.71,0,0,1-3.11.84,3.59,3.59,0,0,1-2.08-.78,1.68,1.68,0,0,1-.33-.32,6.15,6.15,0,0,1-.91-1.56c-.52-1.08-.38-1.2-.9-2.33a14.83,14.83,0,0,1-1-2.14,4.62,4.62,0,0,1,0-2.14l-2,0A5.54,5.54,0,0,0,57.86,81.39Z" transform="translate(-0.77 -0.39)"/><path class="cls-3" d="M56.17,27a4.51,4.51,0,0,1,1.75-.46,6.35,6.35,0,0,1,1.63.07c.4.42.83.13,1.29.65,0,0,.22.24.4,1.37,0,.33.09.73.12,1.23-.71.44-1,.77-1,1l-2.86-.69a14.88,14.88,0,0,0-2.31-.25l0-2.15A3.5,3.5,0,0,1,56.17,27Z" transform="translate(-0.77 -0.39)"/><path class="cls-1" d="M55.36,77.45a6,6,0,0,0-1.8-.55,5.76,5.76,0,0,0,.81-1.72,4.93,4.93,0,0,0,.05.69,3,3,0,0,0,.19.91A1.51,1.51,0,0,0,55.36,77.45Z" transform="translate(-0.77 -0.39)"/><path class="cls-4" d="M58,17.79a2.88,2.88,0,0,0-.52-.4c-.34-.22-.8-.45-1.65-1l-.7-.45c-.88-.58-1.6-1.08-2.08-1.44l1.15-2.27.54.2c1.52.58,1.66,1.13,3.24,1.68a4.25,4.25,0,0,0,2.33.39,3.68,3.68,0,0,0,.7-.2,2.39,2.39,0,0,1,.65.46A4,4,0,0,1,62.36,16c.13.24.31.6.56,1h0l.65,1.1a4.28,4.28,0,0,1-.72.32c-.78.27-1,.14-1.94.38l-.46.14c-.6-.3-1.09-.51-1.43-.65A5.08,5.08,0,0,1,58,17.79Z" transform="translate(-0.77 -0.39)"/><path class="cls-3" d="M53.6,102.23l-.09-.07a1.37,1.37,0,0,1-.2-.13A1.52,1.52,0,0,1,53.6,102.23Z" transform="translate(-0.77 -0.39)"/><path class="cls-3" d="M51.23,91.27a13.22,13.22,0,0,1,1-2.48c.8-1.45,1.26-1.59,1.7-2.73.63-1.63,0-2.11.64-3a1.83,1.83,0,0,1,1-.67l2,0a4.62,4.62,0,0,0,0,2.14,14.83,14.83,0,0,0,1,2.14c.52,1.13.38,1.25.9,2.33a6.15,6.15,0,0,0,.91,1.56,2.3,2.3,0,0,1-.13.58,2.7,2.7,0,0,1-1,1.24,4.79,4.79,0,0,1-1.82.72,4.52,4.52,0,0,1-2.6.26c-.57-.22-.62-.51-1.1-.52a1.27,1.27,0,0,0-.87.38Z" transform="translate(-0.77 -0.39)"/><path class="cls-1" d="M64.35,61.52C63.15,62,63.21,62.87,62,64a7.79,7.79,0,0,1-4,1.82c-.31.06-.11,0-3.38.25a4.79,4.79,0,0,0-2.08.4,2,2,0,0,0,0-2.62,6.57,6.57,0,0,0,.63-.68,2.37,2.37,0,0,0,.43,1.1c.69.88,1.88,1,3.06,1a7.45,7.45,0,0,0,3.57-.53c.52-.2,2-.85,2.4-2a1.52,1.52,0,0,0,.06-1c-.13-.37-.41-.48-.45-.85s.08-.58.26-.65h.06c.19,0,.4.3.85.66A5.39,5.39,0,0,0,64.35,61.52Z" transform="translate(-0.77 -0.39)"/><path class="cls-3" d="M53.19,34.25c-.85.29-1.18.8-1.44.65s.07-.75-.12-1.82a4.63,4.63,0,0,0-.52-1.42,3.49,3.49,0,0,0,.2-1.42c.36-.07.82-.14,1.36-.2a16.67,16.67,0,0,1,1.75-.14h.74a14.88,14.88,0,0,1,2.31.25l2.86.69a.43.43,0,0,0,0,.16c.07.36.58.43,1.18.91a4.3,4.3,0,0,1,1.16,1.55,10,10,0,0,1,.92,3.5c.25,1.56.39,2.19,0,2.74l-.23.25a3.79,3.79,0,0,0-1.46.53h0a2.61,2.61,0,0,0-2,.91,2.83,2.83,0,0,0-.33.65,6.17,6.17,0,0,0-.19-1.63,6.91,6.91,0,0,0-.28-.78,5.34,5.34,0,0,0-.44-2.15,6.54,6.54,0,0,0-1.56-2.07A4,4,0,0,0,55,34.12,3.66,3.66,0,0,0,53.19,34.25Z" transform="translate(-0.77 -0.39)"/><path class="cls-3" d="M59.55,26.59a6.35,6.35,0,0,0-1.63-.07,4.51,4.51,0,0,0-1.75.46,3.5,3.5,0,0,0-1,.78l0,2.15h-.74a16.67,16.67,0,0,0-1.75.14c-.54.06-1,.13-1.36.2a2.7,2.7,0,0,0-.26-1,3.08,3.08,0,0,0-.92-1.12c.13-.42.29-1,.46-1.68a13.92,13.92,0,0,1,.52-2.08A2.76,2.76,0,0,1,51.3,24a3.11,3.11,0,0,0,.45-1.26A2.51,2.51,0,0,0,51.13,21a9.9,9.9,0,0,0,1.14-.69,6.64,6.64,0,0,0,1.11-.84,8.56,8.56,0,0,0,1.3-1.42l1.16-1.69c.85.54,1.31.77,1.65,1a5.48,5.48,0,0,0,.52.4l.11.1a5.54,5.54,0,0,1,1.11,1.56,7.25,7.25,0,0,1,.71,2.6C60.05,24.31,58.78,25.78,59.55,26.59Z" transform="translate(-0.77 -0.39)"/><path class="cls-1" d="M51.11,31.66c-.56-1-1-.92-1.3-1.56s0-.79.32-2a3.08,3.08,0,0,1,.92,1.12,2.7,2.7,0,0,1,.26,1A3.49,3.49,0,0,1,51.11,31.66Z" transform="translate(-0.77 -0.39)"/><path class="cls-1" d="M49.1,96.5a1.77,1.77,0,0,0-1.24.21,2,2,0,0,0-.6.74,3,3,0,0,0-.35,1c0-.24,0-.52,0-.81a6.36,6.36,0,0,0,0-1.65,1.85,1.85,0,0,0-.3-.87A3.18,3.18,0,0,0,47.8,96c.38.16.49.11,1,.32A3.27,3.27,0,0,1,49.1,96.5Z" transform="translate(-0.77 -0.39)"/><path class="cls-3" d="M43.9,99.57c-.17-.64-.28-1.17-.34-1.54s.17-.92.28-1.45c0-.07,0-.13,0-.19a9.82,9.82,0,0,0,.91-.89c.38-.41.49-.61.78-.69a1.1,1.1,0,0,1,1,.24.3.3,0,0,1,.09.1,1.85,1.85,0,0,1,.3.87,6.36,6.36,0,0,1,0,1.65c0,.29,0,.57,0,.81a3,3,0,0,1,.35-1,2,2,0,0,1,.6-.74,1.77,1.77,0,0,1,1.24-.21h0a5,5,0,0,1,.76.54c.45.34,1.34.59,3.32.06l1.36-.52c.24,0,.52,0,.82-.07a.81.81,0,0,1,.35.14,1.47,1.47,0,0,1,.52.78,4.47,4.47,0,0,1,.19,1.36,2.92,2.92,0,0,0,.85,1.56l.84,1.89c-1.32.56-2,.85-2.86.7a3.94,3.94,0,0,1-1.66-.71,1.52,1.52,0,0,0-.29-.2,1.37,1.37,0,0,0,.2.13l.09.07a.93.93,0,0,1,.46.75.85.85,0,0,1-.29.55,4.37,4.37,0,0,1-3,1.11,2.91,2.91,0,0,1-2.28-.52c-.48-.5-.23-1-.84-1.82a2.69,2.69,0,0,0-1.17-1c-.89-.33-1.4.25-2-.14C44.28,101,44.15,100.49,43.9,99.57Z" transform="translate(-0.77 -0.39)"/><path class="cls-4" d="M52.53,5.81a1.86,1.86,0,0,1-1.16.13c-.61-.13-.79-.54-1.56-1.17a9.26,9.26,0,0,0-2-1.19A6,6,0,0,0,46,2.92a5.09,5.09,0,0,0-1.39,0l-.14,0a1.86,1.86,0,0,1-.09-.75c.32-.9,2-1.22,2.88-1.39h.06a6.59,6.59,0,0,1,4.07.3c1,.5.91.91,2.08,1.44a12.56,12.56,0,0,0,2.72.64c2,.37,2.56.34,3.12.92.37.37.29.55.77,1a4.79,4.79,0,0,0,1.7,1,5.5,5.5,0,0,0,1.33.34L64,8c.73,1.23,1.08,1.84.91,2.08s-.47.13-.83.09a1.39,1.39,0,0,0-.12-.53A1.6,1.6,0,0,0,63.38,9a15.77,15.77,0,0,0-1.82-1.18A16.17,16.17,0,0,0,57.92,6.4a16.68,16.68,0,0,0-2.53-.52A15.86,15.86,0,0,0,52.53,5.81Z" transform="translate(-0.77 -0.39)"/><path class="cls-1" d="M45.92,94.25a9.25,9.25,0,0,0,.6.8,1.1,1.1,0,0,0-1-.24c-.29.08-.4.28-.78.69a9.82,9.82,0,0,1-.91.89,27.25,27.25,0,0,0,.74-3.57c.05-.52.07-1,.08-1.35a8.15,8.15,0,0,0,.56,1.6A7.17,7.17,0,0,0,45.92,94.25Z" transform="translate(-0.77 -0.39)"/><path class="cls-2" d="M53.38,19.51a6.64,6.64,0,0,1-1.11.84,9.9,9.9,0,0,1-1.14.69,1.54,1.54,0,0,0-.28-.29c-1.13-1-2.82-.51-3.77-.26a7.2,7.2,0,0,0-3,1.71h0A7.55,7.55,0,0,0,43.84,21c-.26-1.17-.55-1.23-.92-2.46a8,8,0,0,1-.38-2.6c.05-1.07.33-1.13.9-3.39.12-.43.25-1.07.52-2.34.32-1.48.32-1.54.52-2.46.4-1.71.65-1.77.57-2.42,0-.45-.15-.5-.49-1.9,0-.18-.08-.33-.11-.46l.14,0a5.09,5.09,0,0,1,1.39,0,6,6,0,0,1,1.82.66,9.26,9.26,0,0,1,2,1.19c.77.63.95,1,1.56,1.17a1.86,1.86,0,0,0,1.16-.13,15.86,15.86,0,0,1,2.86.07,16.68,16.68,0,0,1,2.53.52,16.17,16.17,0,0,1,3.64,1.42,10.16,10.16,0,0,1,.84,1.5,9.86,9.86,0,0,1,.65,1.85.08.08,0,0,1,0,0,2.62,2.62,0,0,1,0,1,3.09,3.09,0,0,1-1.52,1.88,5,5,0,0,1-.52.25,3.68,3.68,0,0,1-.7.2A4.25,4.25,0,0,1,58,14.12c-1.58-.55-1.72-1.1-3.24-1.68l-.54-.2-1.15,2.27c.48.36,1.2.86,2.08,1.44l.7.45-1.16,1.69A8.56,8.56,0,0,1,53.38,19.51Z" transform="translate(-0.77 -0.39)"/><path class="cls-1" d="M52.58,50.36c-.48-.42-.49-1-.69-1.74a8.66,8.66,0,0,0-1.82-3.46,4.55,4.55,0,0,0-2-1.38,4.7,4.7,0,0,0-2-.18,7.16,7.16,0,0,0-2.13.52s-.05-.74.59-.71c.81,0,1.06-.29,2-.33s.92.25,1.75.2a4.5,4.5,0,0,0,2.08-.72A5.13,5.13,0,0,0,52,41.13a5.36,5.36,0,0,0,.56-.88A9.87,9.87,0,0,1,50.91,43c-.44.53-.84.88-.78,1.36s.37.56.85,1.1A6.42,6.42,0,0,1,52,47c.53,1.14.1,1.78.66,2.46a3.55,3.55,0,0,0,1.1.66c.4.19.75.33,1,.42a1.82,1.82,0,0,1-.71.27A2,2,0,0,1,52.58,50.36Z" transform="translate(-0.77 -0.39)"/><path class="cls-2" d="M52.66,40.06a.24.24,0,0,0,0,.07Zm-1-7c.19,1.07-.14,1.67.12,1.82s.59-.36,1.44-.65A3.66,3.66,0,0,1,55,34.12a4,4,0,0,1,2.07,1.3,6.54,6.54,0,0,1,1.56,2.07,5.34,5.34,0,0,1,.44,2.15,13.29,13.29,0,0,1-.18,1.89c-.09.6-.25,1.23-.25,1.23s-.13.51-.3,1a6,6,0,0,0,1-1.34c.08-.15.13-.26.19-.36v0a2.83,2.83,0,0,1,.33-.65,2.61,2.61,0,0,1,2-.91h0s.29-.06,1.1-.29a2.8,2.8,0,0,0,.36-.24,4.24,4.24,0,0,1,1.35-.08,3.62,3.62,0,0,1,1.82.69,4.25,4.25,0,0,1,1.29,1.91c.49,1.1.13,1,.7,3,.06.22.11.41.16.58a.77.77,0,0,1-.08.64c-.19.28-.52.16-1.3.34a6.51,6.51,0,0,0-1.9.87l-.83.6-.12.09s0-.08-.07-.14a2.36,2.36,0,0,1-.12-.26l-.2-.46c0-.06-.08-.21-.15-.42l-.06-.18c-.11-.34-.19-.64-.25-.91a6.11,6.11,0,0,0-.36-1.09,8,8,0,0,0,.47,3.57,1.37,1.37,0,0,1,.14.67,1.19,1.19,0,0,1-.07.27,3.86,3.86,0,0,1-.89,1.12c-.9,1-.86,1.22-1.21,1.3S61,51.82,60,51.31a9,9,0,0,0-3.37-1,3.24,3.24,0,0,0-1.47,0,1.76,1.76,0,0,0-.42.16c-.24-.09-.59-.23-1-.42a3.55,3.55,0,0,1-1.1-.66c-.56-.68-.13-1.32-.66-2.46a6.42,6.42,0,0,0-1-1.5c-.48-.54-.8-.7-.85-1.1s.34-.83.78-1.36a9.87,9.87,0,0,0,1.66-2.77,5.36,5.36,0,0,1-.56.88,5.13,5.13,0,0,1-1.62,1.43,4.5,4.5,0,0,1-2.08.72c-.83,0-.84-.24-1.75-.2s-1.2.36-2,.33c-.64,0-.59.71-.59.71,0-.54-.53-.69-1-1.3l-.17-.25c-.08-.11-.13-.23-.21-.34A5.65,5.65,0,0,1,42,39.71c0-1.48.49-1.47.52-3.12,0-1.38-.34-1.47-.26-2.86a19.39,19.39,0,0,1,.52-2.59,26.34,26.34,0,0,0,.52-2.74c.1-1.63-.3-1.89,0-3.11.22-.92.49-.91.64-1.82A4.3,4.3,0,0,0,44,22.2h0a7.2,7.2,0,0,1,3-1.71c1-.25,2.64-.7,3.77.26a1.54,1.54,0,0,1,.28.29,2.51,2.51,0,0,1,.62,1.66A3.11,3.11,0,0,1,51.3,24a2.76,2.76,0,0,0-.19.42,13.92,13.92,0,0,0-.52,2.08c-.17.72-.33,1.26-.46,1.68-.36,1.17-.54,1.46-.32,2s.74.53,1.3,1.56A4.63,4.63,0,0,1,51.63,33.08Z" transform="translate(-0.77 -0.39)"/><path class="cls-2" d="M53.05,107.89a7.11,7.11,0,0,1-4.67,0,7.43,7.43,0,0,1-3.12-2.61A8,8,0,0,1,43.56,98c.06.37.17.9.34,1.54.25.92.38,1.38.65,1.55.55.39,1.06-.19,2,.14a2.69,2.69,0,0,1,1.17,1c.61.86.36,1.32.84,1.82a2.91,2.91,0,0,0,2.28.52,4.37,4.37,0,0,0,3-1.11.85.85,0,0,0,.29-.55.93.93,0,0,0-.46-.75,3.94,3.94,0,0,0,1.66.71c.88.15,1.54-.14,2.86-.7s1.9-.83,2.28-1.5a3.46,3.46,0,0,0,.49.17,3.2,3.2,0,0,0,2-.29h0a3.25,3.25,0,0,0,1.94-.4c.46-.27.53-.5.79-.68a1.35,1.35,0,0,1,.32-.16c.62-.26,1.08,0,1.78-.07a3.5,3.5,0,0,0,1-.22A35.65,35.65,0,0,1,65,101.9a27.21,27.21,0,0,1-4.17,2.48c-1.85.85-2.05.64-4,1.55C54.47,107,54.54,107.45,53.05,107.89Z" transform="translate(-0.77 -0.39)"/><path class="cls-4" d="M52.51,63.84a1.67,1.67,0,0,1-.24.15c-.66.32-1.51.21-3.24,0a23.47,23.47,0,0,1-3.37-.65l-3-.11h0c0-.13,0-.26,0-.41a18.08,18.08,0,0,0,.26-2.47,5.6,5.6,0,0,0,0-.64,7.28,7.28,0,0,1-.23-1.7c.08-1.47.55-1.88.52-3.37,0-1-.22-.88-.26-2.08,0-1.49.27-1.61.14-2.72a5.8,5.8,0,0,0-.45-1.55c.08-.12.19-.22.26-.34a5.64,5.64,0,0,0,.7-3c.25-.33.41-.52.39-.83a7.16,7.16,0,0,1,2.13-.52,4.7,4.7,0,0,1,2,.18,4.55,4.55,0,0,1,2,1.38,8.66,8.66,0,0,1,1.82,3.46c.2.79.21,1.32.69,1.74a2,2,0,0,0,1.47.43,1.82,1.82,0,0,0,.71-.27,1.76,1.76,0,0,1,.42-.16,3.24,3.24,0,0,1,1.47,0,9,9,0,0,1,3.37,1c1,.51,1.18.88,1.65.78a2.78,2.78,0,0,1,.73.56,3.11,3.11,0,0,1,.78,1.47A25.67,25.67,0,0,1,64,57.8h0l-1.44,2.41h-.06c-.18.07-.29.4-.26.65s.32.48.45.85a1.52,1.52,0,0,1-.06,1c-.36,1.15-1.88,1.8-2.4,2a7.45,7.45,0,0,1-3.57.53c-1.18-.07-2.37-.15-3.06-1a2.37,2.37,0,0,1-.43-1.1A6.57,6.57,0,0,1,52.51,63.84Z" transform="translate(-0.77 -0.39)"/><path class="cls-2" d="M53.56,76.9a6,6,0,0,1,1.8.55,1.51,1.51,0,0,1-.75-.67,3,3,0,0,1-.19-.91,4.93,4.93,0,0,1-.05-.69A5.76,5.76,0,0,1,53.56,76.9ZM54,86.06c-.44,1.14-.9,1.28-1.7,2.73a13.22,13.22,0,0,0-1,2.48l1.67,2a1.27,1.27,0,0,1,.87-.38c.48,0,.53.3,1.1.52a4.52,4.52,0,0,0,2.6-.26,4.79,4.79,0,0,0,1.82-.72,2.7,2.7,0,0,0,1-1.24,2.5,2.5,0,0,1,.32.84,2.63,2.63,0,0,1,0,1.12c0,.24-.2.66-1.22,1.48a8.18,8.18,0,0,1-2.47,1.5,7.67,7.67,0,0,1-1.52.38,1.58,1.58,0,0,0-.82.07l-1.36.52c-2,.53-2.87.28-3.32-.06a5,5,0,0,0-.76-.54h0a3.27,3.27,0,0,0-.33-.18c-.48-.21-.59-.16-1-.32a3.18,3.18,0,0,1-1.19-.85.3.3,0,0,0-.09-.1,9.25,9.25,0,0,1-.6-.8,7.17,7.17,0,0,1-.66-1.18,8.15,8.15,0,0,1-.56-1.6A12.7,12.7,0,0,0,44.62,90c-.12-.9-.24-1-.47-2.09,0,0,0,0,0,0s0-.14,0-.22a16.78,16.78,0,0,1-.4-3.39c0-1.32.22-1.34.14-2.32a18.6,18.6,0,0,0-.66-2.61,6.29,6.29,0,0,1-.26-3.12c.22-.76.46-.62.66-1.3.39-1.33-.51-1.91-.78-4.41a4.8,4.8,0,0,1,0-1.82c.16-.69.43-1,.52-1.42a1.27,1.27,0,0,0,0-.39c-.09-.61-.49-.62-.78-1.31-.21-.48-.14-.8.07-2.31h0l3,.11A23.47,23.47,0,0,0,49,64c1.73.21,2.58.32,3.24,0a1.67,1.67,0,0,0,.24-.15,2,2,0,0,1,0,2.62,4.79,4.79,0,0,1,2.08-.4c3.27-.26,3.07-.19,3.38-.25A7.79,7.79,0,0,0,62,64c1.19-1.12,1.13-2,2.33-2.47a3.87,3.87,0,0,1,2.08-.13,3,3,0,0,1,1.18.48,1.79,1.79,0,0,1,.38.31,2,2,0,0,1,.52,1.16h0c0,.23.08.5.14.83l-1.31.2A8,8,0,0,1,66.63,67c-.76,1.6-1.58,1.84-2.08,3.44a3.49,3.49,0,0,0-.07,2.41,3.3,3.3,0,0,0,1.37,1.42c1.1.73,1.53.42,2.86,1.18.22.12.66.44,1.56,1.1s1.18.86,1.55,1.16c1,.77,1.21,1.1,1.47,1.23h0c.17.17.4.4.71.67a3.59,3.59,0,0,0,1.12.78,5.07,5.07,0,0,0,1.65,0l.53-.05.11,1.21a.11.11,0,0,0-.08,0c-.08,0,0,.21,0,.48a2.18,2.18,0,0,1-.28.78,3.79,3.79,0,0,1-.59.91,3.6,3.6,0,0,1-1.62.91,7.83,7.83,0,0,1-2.35.43,4.4,4.4,0,0,1-1.67-.31,4.12,4.12,0,0,1-.52-.24,9.15,9.15,0,0,0-1.18-.46,10.26,10.26,0,0,0-1.3-.33h0a1.35,1.35,0,0,0,0-.39,1.48,1.48,0,0,0-.46-.84c-.14-.14-.31-.22-1.16-.4a9.67,9.67,0,0,0-2-.26c-.45,0-.39.07-.85.08a8.64,8.64,0,0,1-1.75-.2c-.93-.19-1.38-.28-1.56-.52s-.19-.78-.06-1.69A10.4,10.4,0,0,1,60.2,78c-.19.39-.42.8-.65,1.23a6.7,6.7,0,0,1-1.69,2.21,5.54,5.54,0,0,1-2.28,1,1.83,1.83,0,0,0-1,.67C54,84,54.6,84.43,54,86.06Z" transform="translate(-0.77 -0.39)"/><path d="M39.39,15.25a3.09,3.09,0,0,0,0,1.45c-.53.35-1.07.71-1.59,1.1a19.31,19.31,0,0,0-2.82,2.28,1.37,1.37,0,0,1-.16.18l-1.2-1.12a.22.22,0,0,0,.21-.12.27.27,0,0,0-.06-.36,3.2,3.2,0,0,1-1.21-1.52,3.37,3.37,0,0,1,.17-2.41A3.89,3.89,0,0,1,34,13.15a4.93,4.93,0,0,1,1-.62,7,7,0,0,1,3.67-.5,10.59,10.59,0,0,1,2.44.44,5.65,5.65,0,0,1-.32.65A5.31,5.31,0,0,1,40,14.23,2.3,2.3,0,0,0,39.39,15.25Z" transform="translate(-0.77 -0.39)"/><path d="M36.2,100.27a.26.26,0,0,0-.34.14,3.49,3.49,0,0,1-.89,1.2,4.57,4.57,0,0,1-4,.73,4.71,4.71,0,0,1-.85-.34L30,102A7.2,7.2,0,0,1,29,101.2a2.44,2.44,0,0,1,.9-1.56,1.53,1.53,0,0,1,.3-.19,1.67,1.67,0,0,0,.32-.08,2.64,2.64,0,0,0,.38-.18l0,0a5.08,5.08,0,0,0,1.48-1.48,9,9,0,0,0,1.07-1.79.26.26,0,0,0-.13-.34.2.2,0,0,0-.11,0l-.11-1.05h0a12.31,12.31,0,0,1,4.38.4h.06l1.14.88A1.57,1.57,0,0,0,38.17,97a1.12,1.12,0,0,0,.28.62,1.15,1.15,0,0,1,.25.52,2,2,0,0,1-.24,1.06,3.32,3.32,0,0,1-1,1.21.26.26,0,0,0-.1.19l-1,0A.26.26,0,0,0,36.2,100.27Z" transform="translate(-0.77 -0.39)"/><path d="M42.33,4.29A7,7,0,0,1,42.15,7c0,.15,0,.27-.07.38h0a3.66,3.66,0,0,1-.91.89,3.8,3.8,0,0,1-2,.66.28.28,0,0,0-.25.28.26.26,0,0,0,.26.24h0a4.3,4.3,0,0,0,2.29-.75,3.5,3.5,0,0,0,.3-.24c0,.16-.08.37-.12.64a6.19,6.19,0,0,0-.08,1.17,4.85,4.85,0,0,1-.09,1.06,5.71,5.71,0,0,1-.19.69,10.76,10.76,0,0,0-2.57-.46,7.42,7.42,0,0,0-3.94.54.88.88,0,0,0-.19.1,2.19,2.19,0,0,0-.09-2.09,2.42,2.42,0,0,0-2.4-.8,4.72,4.72,0,0,0-2.19.9,11.42,11.42,0,0,0-1.67,1.23.31.31,0,0,0-.13-.06c0-.22,0-.44,0-.67a8.45,8.45,0,0,1,.12-1,1.08,1.08,0,0,0,.12-.24,3.05,3.05,0,0,0,.22-1.19v0a2.17,2.17,0,0,0,0-.26,1.74,1.74,0,0,1,.1-.88.3.3,0,0,0,0-.08c.33-.59,1-.77,2.17-1.07.43-.11.92-.23,1.47-.41a22.41,22.41,0,0,0,4-1.66.28.28,0,0,0,.1-.36.28.28,0,0,0-.23-.13L35.85,1A19.44,19.44,0,0,1,38.38.77a3.2,3.2,0,0,1,2.15.57,4.71,4.71,0,0,1,1.55,2.1,17.35,17.35,0,0,0-1.4,1.17c-.44.4-.85.83-1.25,1.25a.28.28,0,0,0,0,.38.32.32,0,0,0,.18.06.23.23,0,0,0,.19-.09c.39-.41.8-.83,1.22-1.21s.79-.71,1.21-1h0C42.3,4.15,42.33,4.27,42.33,4.29Z" transform="translate(-0.77 -0.39)"/><path d="M36.33,100.63s0,0,0-.06l1,0a.25.25,0,0,0,.26.26.24.24,0,0,0,.16,0,3.63,3.63,0,0,0,1.11-1.39,2.24,2.24,0,0,0,.28-1.36,1.38,1.38,0,0,0-.34-.75.82.82,0,0,1-.18-.36c0-.59.83-1.21,1.17-1.39a2.78,2.78,0,0,1,1.31-.33,7.2,7.2,0,0,0-.22,1.47c0,.57,0,1,0,1.38a3.08,3.08,0,0,1-.28,1.63,2,2,0,0,1-.66.79,9.17,9.17,0,0,0-1.21,1.25A12,12,0,0,0,37,104.39c-.21.43-.33.78-.44,1a1.83,1.83,0,0,1-.54.94,2.92,2.92,0,0,1-1.91.62,4,4,0,0,1-2.32-.69c-.6-.29-1.41-.69-2.59-1.19l-.66-.27-.92-.39.26-.58h.07a.26.26,0,0,0,.25-.18l.22-.72,1.54-.5a4.61,4.61,0,0,0,.88.35,5.56,5.56,0,0,0,1.52.2,4.45,4.45,0,0,0,3-1A4.28,4.28,0,0,0,36.33,100.63Z" transform="translate(-0.77 -0.39)"/><path d="M38.94,49.07a8.71,8.71,0,0,0-3-1.7,11.61,11.61,0,0,0-5.66-.88,9.85,9.85,0,0,0-1.6.32c0-.45.1-.92.18-1.38a15,15,0,0,1,.59-2.38l.05-.15a2.41,2.41,0,0,0,.11-1.21c-.13-.8-.71-1.45-1.79-2.65-.3-.33-.59-.63-.85-.9a9.5,9.5,0,0,0,2.24.9,7.45,7.45,0,0,0,2.86.13,13.35,13.35,0,0,1,2.89,0,15.37,15.37,0,0,1,3.47.7,3.18,3.18,0,0,0,.38,2.42,14.32,14.32,0,0,1,.78,2.06,17.66,17.66,0,0,1,.67,4.44c0,.66,0,1.24,0,1.83A7,7,0,0,0,38.94,49.07Z" transform="translate(-0.77 -0.39)"/><path d="M32.36,64.91a8.55,8.55,0,0,0,2.83.71l-1.1,1a30,30,0,0,1-2.57,2.14,10.31,10.31,0,0,1-3.62,1.85c-.4.09-.91.2-4.5-.35-.81-.12-1.48-.24-2-.33l.28-1.75h.07a.29.29,0,0,0,.16-.13c.06-.12,0-.2-.06-.4v0a8.05,8.05,0,0,0-.38-1.24,3.44,3.44,0,0,1,.1-1.82,3,3,0,0,1,1-1.2,17.6,17.6,0,0,0,1.33-1.32,17.14,17.14,0,0,0,1.43-1.78l0,0c.38-.36.71-.67,1.08-1.07a18.74,18.74,0,0,0,2.46,3.06A10.22,10.22,0,0,0,32.36,64.91Z" transform="translate(-0.77 -0.39)"/><path d="M26.06,99.12a.93.93,0,0,1,.45.24,2.88,2.88,0,0,1,.37.43A9.33,9.33,0,0,0,28,101.05l.48.44a7.61,7.61,0,0,0,.83.64l-1.24.41a.26.26,0,0,0-.17.17l-.26.85a.25.25,0,0,0,.18.32l-.26.58a8.59,8.59,0,0,1-1.49-.86,4.24,4.24,0,0,1-.72-.64,6.89,6.89,0,0,0-.66-.58,6.25,6.25,0,0,0-2.51-1.2l-.22-.06a5.39,5.39,0,0,1,1.08-1C23.64,99.72,24.93,98.8,26.06,99.12Z" transform="translate(-0.77 -0.39)"/><path d="M27,73.76a.27.27,0,0,0-.25.27,7.39,7.39,0,0,0,3.17,5.73.23.23,0,0,0,.14,0,.24.24,0,0,0,.22-.11.26.26,0,0,0-.07-.36A7,7,0,0,1,28.1,77,6.82,6.82,0,0,1,27.28,74,.27.27,0,0,0,27,73.76Zm8.85,5c0,.16,0,.3.06.4A4.86,4.86,0,0,1,35,82.45a7,7,0,0,1-3,2.42,8.74,8.74,0,0,1-4.7.84,5.6,5.6,0,0,1-1.66-.4,9.64,9.64,0,0,0-1.49-.44h-.08a7,7,0,0,0-1.28-.21,9.25,9.25,0,0,0,1-.43,9.64,9.64,0,0,0,2.14-1.51.27.27,0,1,0-.37-.38,8,8,0,0,1-1.47,1.12L22.77,81.6A4.55,4.55,0,0,0,25,81a.26.26,0,0,0,.11-.35.28.28,0,0,0-.36-.11,3.73,3.73,0,0,1-2.51.5,4.55,4.55,0,0,1-3-2.64c-.31-.56-.34-.85-.59-3l-.26-2.26c-.25-2.12-.28-2.49-.07-2.7v0c.33-.33.89-.26,2.91.09l2.14.35c3.41.52,4.11.47,4.69.34a10.8,10.8,0,0,0,3.81-2A27.73,27.73,0,0,0,34.45,67c.51-.46,1-.94,1.48-1.4h.39a4.25,4.25,0,0,1,1.36.08,4,4,0,0,1,1.54.78l-.06.06a1.32,1.32,0,0,0-.46.87,1.73,1.73,0,0,0,.59,1.42,3.91,3.91,0,0,1,.8,1.29,2.67,2.67,0,0,1,.07,1.27c0,.24,0,.53,0,.9h0c0,.19,0,.38,0,.56a2.69,2.69,0,0,1-.64,1.59,2,2,0,0,1-.75.48h0a4.55,4.55,0,0,0-.55.19h0l-.84.25c-.62.18-1.41.41-2.45.73s-1.26.55-1.22.81.34.29.58.3a2,2,0,0,1,.93.23,1.88,1.88,0,0,1,.75,1.21A.3.3,0,0,0,35.86,78.76Z" transform="translate(-0.77 -0.39)"/><path d="M40.53,89.59a6.61,6.61,0,0,1,1.39-.67,16.2,16.2,0,0,1-.28,3.94,18.28,18.28,0,0,1-.36,1.85,3.32,3.32,0,0,0-1.68.38,4,4,0,0,0-.9.68l-1.14-.88a.26.26,0,0,0,.25-.2.26.26,0,0,0-.18-.32A12.73,12.73,0,0,0,32.5,94a14.62,14.62,0,0,0-1.72.39,7.73,7.73,0,0,1-2.4.39H28l0-1.38a.27.27,0,0,0,.2-.11.24.24,0,0,0,0-.36,11.73,11.73,0,0,1-1.35-1.19,12.05,12.05,0,0,1-1.95-2.62,5.38,5.38,0,0,1-.75-1.92,4.57,4.57,0,0,1,.1-1.8c.52.13.89.27,1.21.38a6.42,6.42,0,0,0,1.79.43c.3,0,.6,0,.89,0a9.56,9.56,0,0,0,4.09-.94,7.49,7.49,0,0,0,3.22-2.59,5.39,5.39,0,0,0,1-3.65,3.81,3.81,0,0,0-.07-.44h0a3.22,3.22,0,0,1,1.92-3h0a4.47,4.47,0,0,0,.52-.18l.08,0a2.32,2.32,0,0,0,.93-.59l.22-.26c0,.59,0,1.27,0,1.91a9.89,9.89,0,0,0,.26,2,15.76,15.76,0,0,1,.26,1.77,16.67,16.67,0,0,1,0,2.64,7,7,0,0,0,.15,2.42,5.71,5.71,0,0,0,.55,1.52,3.84,3.84,0,0,1-.15,1,3.07,3.07,0,0,1-.91,1.33c-.17.11-.35.22-.52.35s-.31.25-.44.34c-.32.27-.47.38-.72.4s-.48-.13-.8-.41a4.34,4.34,0,0,0-.88-.61,3.63,3.63,0,0,0-2.17-.2c-.33,0-.7.06-1.17.08a26.58,26.58,0,0,1-3.34,0,.27.27,0,0,0-.27.25.25.25,0,0,0,.24.27,27.55,27.55,0,0,0,3.4,0c.47,0,.86-.06,1.19-.09a2.73,2.73,0,0,1,2.66.7,1.65,1.65,0,0,0,1.09.53h.09a1.68,1.68,0,0,0,1-.5,5.15,5.15,0,0,1,.43-.33C40.21,89.79,40.37,89.69,40.53,89.59Z" transform="translate(-0.77 -0.39)"/><path d="M23.34,13.63a16.86,16.86,0,0,1-1.51,1.13l-.15.11L20.8,13.5a3.63,3.63,0,0,0,.38-1.29A5,5,0,0,1,22,9.94c.52-.66,1.64-1.08,3.87-1.9.71-.27,1.45-.51,2.2-.72a3,3,0,0,0,0,.67c0,.07,0,.16,0,.24a8.35,8.35,0,0,0-.31,1.29A5.8,5.8,0,0,1,26.4,11C25,12.18,24.11,13,23.34,13.63Z" transform="translate(-0.77 -0.39)"/><path d="M16.85,87.62a5.75,5.75,0,0,0-1.32-.18,1.41,1.41,0,0,1-1-.26l0,0A2.2,2.2,0,0,1,14,86c0-.17-.08-.36-.13-.56a7,7,0,0,1-.19-1.19,14.91,14.91,0,0,0,4.77,1,12.46,12.46,0,0,0,2.14,0h.1l.25,0a8.58,8.58,0,0,1,2.83.14,5.07,5.07,0,0,0-.11,2,6.29,6.29,0,0,0,.8,2.08,12.84,12.84,0,0,0,2,2.74,14,14,0,0,0,1.41,1.23.25.25,0,0,0,.16.06l0,1.38A18.33,18.33,0,0,1,25,94.55c-.32-.06-.61-.13-.86-.19a2.37,2.37,0,0,0-1.23-.11L22.16,92a.23.23,0,0,0,.16-.06.23.23,0,0,0,0-.36,15.76,15.76,0,0,0-3.25-2.82A7.4,7.4,0,0,0,16.85,87.62Z" transform="translate(-0.77 -0.39)"/><path d="M13.21,91.58a2.74,2.74,0,0,1,1.48-.34,3,3,0,0,1,.86.24.25.25,0,0,0,.34-.12.26.26,0,0,0-.11-.34l.91-.09.25.18a3.2,3.2,0,0,1,.77.65,4.18,4.18,0,0,1,.81,1.71.28.28,0,0,0,.26.21h0a.26.26,0,0,0,.2-.32,4.76,4.76,0,0,0-.91-1.92,4,4,0,0,0-.88-.75,13.63,13.63,0,0,1-1.33-1,3.36,3.36,0,0,1-1.13-1.37,1.41,1.41,0,0,1-.11-.46,2.55,2.55,0,0,0,.84.12,4.69,4.69,0,0,1,1.21.17,6.47,6.47,0,0,1,2.09,1.09A16.16,16.16,0,0,1,22,91.94a.24.24,0,0,0,.2.08l.72,2.23a.37.37,0,0,0-.17.16c-.19.34.13.77,1.18,1.63a.27.27,0,0,0,.17.06.23.23,0,0,0,.19-.1.24.24,0,0,0,0-.36,5.74,5.74,0,0,1-1-.91c.17,0,.48.08.74.14l.88.19a20.35,20.35,0,0,0,3.51.26,7.91,7.91,0,0,0,2.53-.41,12.06,12.06,0,0,1,1.66-.37,3.1,3.1,0,0,1,.54-.05l.11,1.05a.25.25,0,0,0-.23.15,8.35,8.35,0,0,1-1,1.67,4.84,4.84,0,0,1-1.31,1.35A3.06,3.06,0,0,0,30,99h0a7.86,7.86,0,0,1-1.49,0c-.57,0-1.15,0-1.71-.07a1.72,1.72,0,0,0-.59-.3c-1.37-.39-2.82.63-3.43,1.08a6.41,6.41,0,0,0-1.3,1.25,5.23,5.23,0,0,1-1.26-.65,2,2,0,0,1-.43-.41c-.25-.3-.71-.85-2-2.15-.58-.63-1-1-1.28-1.33a9.24,9.24,0,0,1-1.11-1.25c-.2-.27-.28-.37-1.41-2.23l-.36-.6Z" transform="translate(-0.77 -0.39)"/><path d="M31.36,1.55c1-.11,2.27-.27,4-.51l.5-.06.33,2.4a.27.27,0,0,0-.12,0A22.19,22.19,0,0,1,32.2,5c-.54.17-1,.29-1.44.41-1.21.31-2,.51-2.45,1.26-.88.24-1.76.52-2.61.84-2.32.87-3.49,1.29-4.09,2.07a5.43,5.43,0,0,0-.94,2.49c-.13.77-.23,1.21-.58,1.32a.32.32,0,0,1-.27,0,3.7,3.7,0,0,0-.79-.09,5.79,5.79,0,0,0-2.18.55c-1.35.52-2,.78-2.53,1a13.61,13.61,0,0,0-1.42.91l.12-.19c.23-.37.31-.5.47-.81s.44-.82,1.09-2A26.35,26.35,0,0,1,16.8,9.28,4.36,4.36,0,0,1,18,8.34a13.09,13.09,0,0,0,2.19-1.47c.7-.54,1.08-.91,1.38-1.18a2.67,2.67,0,0,1,1-.68,4.56,4.56,0,0,1,1.68-.31,3.66,3.66,0,0,0,1.81-.4,3.13,3.13,0,0,0,1.27-1.14,4.88,4.88,0,0,1,.7-.8C28.57,1.87,29.16,1.81,31.36,1.55Z" transform="translate(-0.77 -0.39)"/><path d="M18.09,75.41c.12,1,.18,1.6.25,2l-.68.12a.24.24,0,0,0-.06-.15,8.49,8.49,0,0,0-3.31-2.68,4.34,4.34,0,0,0-2-.46,2.77,2.77,0,0,0-.87.19.94.94,0,0,1-.55.07c-.89-.15-1.46-1.31-1.62-1.66a2.48,2.48,0,0,1-.2-.8,2.06,2.06,0,0,0-.24-.78,1.89,1.89,0,0,0-.88-.81A14.73,14.73,0,0,1,9.48,69.3c1.44-.93,2.31-1.46,3.4-1.43a4.56,4.56,0,0,1,1.72.51,11.94,11.94,0,0,1,3.13,1.89c-.2.37-.12,1,.09,2.89Z" transform="translate(-0.77 -0.39)"/><path d="M7,82.38c.62.66,1,1,1.4,1h.13a1.1,1.1,0,0,0,.81-.7,1,1,0,0,0,0-.59c0-.11,0-.15,0-.17a2.11,2.11,0,0,1,.6-.45l.26,0a6.19,6.19,0,0,0,.71.91,3.44,3.44,0,0,0,.27.27s0,0,0,0c.45.64.9,1.29,1.33,1.94s.65,1,.95,1.49a2.69,2.69,0,0,0,.66,1.42,2.88,2.88,0,0,0,.18,1,4,4,0,0,0,1.29,1.58,12.55,12.55,0,0,0,1.11.87l-.91.09h0a2.78,2.78,0,0,0-1-.28,3,3,0,0,0-1.79.41l-.62-1a9.74,9.74,0,0,0-1.57-1.77,8.38,8.38,0,0,1-1.37-1.52,7.66,7.66,0,0,1-.78-1.26,16.43,16.43,0,0,0-1.12-1.85c-.43-.62-.71-1-1-1.26s-.37-.47-.61-.81c-.08-.12-.22-.35-.44-.74l.19-.12a.36.36,0,0,0,0,.09C6.15,81.41,6.57,81.9,7,82.38Z" transform="translate(-0.77 -0.39)"/><path d="M7.39,50.53a3.25,3.25,0,0,0-.56.28v0a7.82,7.82,0,0,1,.92-4.43h0C8.43,45,9.13,43.56,10.64,43a5.15,5.15,0,0,1,4.76,1.16,3.52,3.52,0,0,1,.9,1.15,0,0,0,0,1,0,0l0,0,.06.12a7.39,7.39,0,0,0,1.32,1.93,11.9,11.9,0,0,0,1.39,1.35,4,4,0,0,1,.81,1.67s0,.06,0,.08a2.53,2.53,0,0,1,.06.61,3.15,3.15,0,0,1-.36,1.31,5.15,5.15,0,0,0-.33.89c-.3,1.28.18,2.77,1.43,4.45a.25.25,0,0,0,.21.11.27.27,0,0,0,.16-.05.28.28,0,0,0,0-.37c-1.16-1.55-1.61-2.91-1.34-4a4.94,4.94,0,0,1,.29-.79,3.38,3.38,0,0,0,.4-1.51,2.42,2.42,0,0,0,0-.6l1-.7a5.82,5.82,0,0,0,4.32-1.17h0a0,0,0,0,0,0,0,10.7,10.7,0,0,1,2.69-1.28,10.31,10.31,0,0,1,1.86-.4,11.26,11.26,0,0,1,5.42.85,8.15,8.15,0,0,1,2.86,1.59,7.2,7.2,0,0,1,1.59,2.07c0,.37-.07.76-.11,1.18a26,26,0,0,1-.52,3.77,1.89,1.89,0,0,1-.09.34l-1.25-1a.28.28,0,0,0-.37.05.27.27,0,0,0,.06.37l1.43,1.11c-.09.33-.19.6-.26.85a3.72,3.72,0,0,0-.29,1.51,2.61,2.61,0,0,1-2.45.23.27.27,0,0,0-.34.14.27.27,0,0,0,.14.34,3.19,3.19,0,0,0,1.21.24l.42,0a3.08,3.08,0,0,0,1.11-.37,2.39,2.39,0,0,0,.73,1.16,2.14,2.14,0,0,1,.64,1.06,4.81,4.81,0,0,1-.48,3.26l-.21.32a4.76,4.76,0,0,0-1.76-.87,4.23,4.23,0,0,0-1.52-.1h-.87a7.79,7.79,0,0,1-2.85-.68,9.89,9.89,0,0,1-3.38-2.53,17.2,17.2,0,0,1-2.46-3.1,24.6,24.6,0,0,0,2.42-3.22c.34-.51.72-1.08,1.19-1.75.57-.83,1.13-1.62,1.73-2.43A.26.26,0,0,0,32,51a.27.27,0,0,0-.36.06c-.59.81-1.16,1.6-1.73,2.43s-.86,1.25-1.2,1.76a25.11,25.11,0,0,1-2.45,3.27l-.05,0,0,0-.9.9a.29.29,0,0,0-.22.11,1.94,1.94,0,0,1-.21.29A44,44,0,0,1,19,64.53l-.49.14a4.08,4.08,0,0,1-1.42.26,4.39,4.39,0,0,1-1.41-.23h0a4.69,4.69,0,0,1-1.46-1.83,4.91,4.91,0,0,1-.4-1.92,4.68,4.68,0,0,1,.2-1.44.27.27,0,0,0-.17-.32.26.26,0,0,0-.33.17A5.36,5.36,0,0,0,13.33,61a5.23,5.23,0,0,0,.45,2.14,5.08,5.08,0,0,0,.66,1.08c-.35-.17-.7-.37-1.07-.59a14.88,14.88,0,0,1-1.29-.82,10.53,10.53,0,0,0-1.94-1.1,13.81,13.81,0,0,0-1.86-.53C8,61.05,7.72,61,7.53,61h0c-.54-.42-1-.87-1.55-1.34a6.48,6.48,0,0,1-1.21-1.29A5.36,5.36,0,0,1,4,55.62a7.51,7.51,0,0,0-.06-.93,11,11,0,0,0-.3-1.81.26.26,0,0,0-.32-.19.27.27,0,0,0-.19.31,13.23,13.23,0,0,1,.31,1.74c0,.4,0,.66,0,.89a6,6,0,0,0,.08.95,5.6,5.6,0,0,0,.78,2A7.57,7.57,0,0,0,5.62,60c.39.36.81.72,1.23,1.08a1.12,1.12,0,0,0-.3.2v0a.18.18,0,0,0-.08.09,1.64,1.64,0,0,0-.33.61,2,2,0,0,1-.83.66,2,2,0,0,1-1.08.13h0l-.66-.21c-.35-.11-.71-.25-1-.39l-.08,0a10.3,10.3,0,0,1-1-.49.22.22,0,0,0-.21,0c0-.39.08-.79.09-1.32a17.79,17.79,0,0,0-.15-2.43l0-.2C.88,55.61.76,54.55.77,53.94a5.17,5.17,0,0,1,.3-1.7,29.52,29.52,0,0,0,.74-3.1,20.51,20.51,0,0,0,.38-2.78,5.35,5.35,0,0,1,1-.67A3.58,3.58,0,0,1,6,45.26a2.69,2.69,0,0,1,1.19,1,8.32,8.32,0,0,0-.92,4.59,3.54,3.54,0,0,0,.07.47,7.81,7.81,0,0,0,1.37,3.38A.24.24,0,0,0,8,54.8a.23.23,0,0,0,.14,0,.25.25,0,0,0,.07-.36,7.9,7.9,0,0,1-1.25-3A2.22,2.22,0,0,1,7.57,51,1.57,1.57,0,0,1,8.76,51a1.19,1.19,0,0,1,.45.39.27.27,0,0,0,.37.07.28.28,0,0,0,.06-.37A1.8,1.8,0,0,0,9,50.5,2.06,2.06,0,0,0,7.39,50.53Z" transform="translate(-0.77 -0.39)"/><path d="M6.92,61.67a.85.85,0,0,1,.19-.14c.16-.07.34-.07,1.06.11a10.61,10.61,0,0,1,1.76.51,8.44,8.44,0,0,1,1.86,1.05,14.59,14.59,0,0,0,1.33.84,13,13,0,0,0,2.39,1.15l.05,0h.06a4.76,4.76,0,0,0,1.47.23h.05a4.66,4.66,0,0,0,1.57-.29l.43-.13h.08a.94.94,0,0,1,.51.07,2.54,2.54,0,0,1,1.2,1.45,6,6,0,0,0,.4,1.29c.05.23.07.3.17.35a.23.23,0,0,0,.14,0L21.36,70h-.08c-1.9-.32-2.68-.46-3.2-.08a12.91,12.91,0,0,0-3.27-2,5.25,5.25,0,0,0-1.91-.54c-1.34,0-2.38.66-3.7,1.52a14.45,14.45,0,0,0-1.83,1.39l-.1,0a6,6,0,0,1-.91-.41c-1.2-.67-1.69-1.76-2.67-3.94a15.16,15.16,0,0,1-1-3c.23.1.46.18.68.26a6.76,6.76,0,0,0,.67.2l.1,0h0l.61.15a7.3,7.3,0,0,1,1.37.4,10.8,10.8,0,0,1,1.26.58,6.46,6.46,0,0,0,.76.42c.23.13.28.15.39.13a.25.25,0,0,0,.16-.12.3.3,0,0,0,0-.21c0-.11-.1-.14-.28-.23l0,0h0c-.16-.09-.38-.23-.67-.37-.7-.46-1.08-.92-1.13-1.38a1.28,1.28,0,0,1,0-.39A2.7,2.7,0,0,0,6.92,61.67Z" transform="translate(-0.77 -0.39)"/><path d="M5.1,34.07A7.26,7.26,0,0,1,5.32,33c.14-.56.4-1.61,1-4.24.17-.75.3-1.38.42-1.92a14.22,14.22,0,0,1,1.12-3.91A24.3,24.3,0,0,1,9.9,19.81c.54-.75.94-1.26,1.3-1.71h0a11.9,11.9,0,0,1,3.35-2.7,23.58,23.58,0,0,1,2.49-1,5.39,5.39,0,0,1,2-.51,2.23,2.23,0,0,1,.65.07.92.92,0,0,0,.55,0,1.07,1.07,0,0,0,.56-.43l.88,1.37c-.67.44-1.36.87-2.08,1.27a.25.25,0,0,0-.09.35.23.23,0,0,0,.22.13.28.28,0,0,0,.13,0c.77-.43,1.54-.9,2.27-1.39.48-.33,1-.7,1.52-1.15a16.49,16.49,0,0,0,2-1.2l.8-.59c.59-.46.81-.59,1.1-.57l.21,0h.05a1.46,1.46,0,0,1,.3.16.16.16,0,0,0,.08.06,1.62,1.62,0,0,1,.68,1.2c0,.63-.56,1.08-1.2,1.61a5.65,5.65,0,0,1-1.61.94,4.06,4.06,0,0,0-1.26.72,4.73,4.73,0,0,0-1.38,3,.27.27,0,0,0,.22.29h0a.25.25,0,0,0,.26-.23,4.19,4.19,0,0,1,1.22-2.69,3.34,3.34,0,0,1,1.11-.63,6.07,6.07,0,0,0,1.73-1c.73-.59,1.41-1.14,1.39-2a2.13,2.13,0,0,0-.68-1.45,12,12,0,0,1,1.52-1.09,4.19,4.19,0,0,1,2-.83c1.19-.1,1.71.26,1.93.58a2.08,2.08,0,0,1-.46,2.4,4.45,4.45,0,0,0-1.39,1.77A3.8,3.8,0,0,0,32,17.32a3.66,3.66,0,0,0,1.4,1.78.33.33,0,0,0,.14,0l1.2,1.12A6.85,6.85,0,0,0,33,22.91L33,23a5.74,5.74,0,0,0-.2,1.23,2,2,0,0,0,.06.56,2.09,2.09,0,0,1,0,.67,2.6,2.6,0,0,1-.1.4,3.94,3.94,0,0,0-.89,1.95L31.24,30A4.86,4.86,0,0,0,31,31a5.89,5.89,0,0,0,2.52,4.27.3.3,0,0,0,.16,0,.27.27,0,0,0,.2-.09.26.26,0,0,0,0-.37A5.4,5.4,0,0,1,31.51,31s.06-.26.22-.84l.63-2.22a3.56,3.56,0,0,1,.74-1.71l.08-.06.09-.05a1.43,1.43,0,0,1,.67-.16c.25,0,.53,0,.65-.31s-.12-.63-.41-.91a2.25,2.25,0,0,1-.69-1,1.42,1.42,0,0,1,0-.68v0a6.78,6.78,0,0,1,1.83-2.59,18.76,18.76,0,0,1,2.73-2.22c.46-.34.93-.66,1.39-1a2.5,2.5,0,0,1,.11.39,7.36,7.36,0,0,0,.63,1.67,9.59,9.59,0,0,1,.42,1,9.36,9.36,0,0,1,.33,3.21,26.37,26.37,0,0,1-.69,6,13.66,13.66,0,0,1-.45,1.7,3.63,3.63,0,0,0-.24,1.11A8.51,8.51,0,0,0,39.72,35a4.41,4.41,0,0,1,0,2.23A3.43,3.43,0,0,1,39,38.68a3.53,3.53,0,0,0-.44.67A15.9,15.9,0,0,0,35,38.62a14.29,14.29,0,0,0-3,0,6.91,6.91,0,0,1-2.69-.12,10.36,10.36,0,0,1-3.52-1.76c-.41-.3-.63-.46-.82-.21s0,.37.63,1c.43.41,1.08,1,1.81,1.85,1.08,1.19,1.57,1.75,1.68,2.37a2,2,0,0,1-.08.9s0,0,0,0l0,0a.75.75,0,0,0,0,.16s0,0,0,0a15.91,15.91,0,0,1-1,2c-.36.64-.66,1.16-.93,1.6a5.13,5.13,0,0,0-1.07-1.74A5.23,5.23,0,0,0,23,43.21a.26.26,0,0,0-.1.51,4.67,4.67,0,0,1,2.63,1.39,4.5,4.5,0,0,1,1.09,1.94,4.92,4.92,0,0,1-1.07,1.18l-.06,0h0a5.37,5.37,0,0,1-4,1.08h0a2.84,2.84,0,0,1-.54-.16A12.06,12.06,0,0,1,19.17,47a9.23,9.23,0,0,1-1.26-3.12,8.57,8.57,0,0,1,.17-3.36c0-.12.05-.22.07-.33a21.41,21.41,0,0,1,1.64-4.3c.45-1,.95-2,1.46-2.93a.24.24,0,0,0-.1-.34.25.25,0,0,0-.35.1c-.52,1-1,2-1.48,3A20.76,20.76,0,0,0,17.66,40h0v0c-.28.85-.54,1.73-.77,2.6-.17.63-.31,1.27-.45,1.91a3.78,3.78,0,0,0-.68-.75,5.64,5.64,0,0,0-5.28-1.26,5.66,5.66,0,0,0-3,3.2,3.11,3.11,0,0,0-1.26-.94A4.06,4.06,0,0,0,3,45.22a6.71,6.71,0,0,0-.81.49c0-.09,0-.19,0-.29,0-.34-.11-.61-.16-.89A10.55,10.55,0,0,1,1.81,43,5.85,5.85,0,0,1,2,40.69,2.74,2.74,0,0,1,3,39.33a5.31,5.31,0,0,0,1.14-1.17,4.55,4.55,0,0,0,.72-2.5C5,35.22,5,34.71,5.1,34.07ZM19.89,22.88a3,3,0,0,0-.35-.36,6.4,6.4,0,0,0-1.76-1.16,6.84,6.84,0,0,0-3.05-.57,8.13,8.13,0,0,0-3.32.85,5.62,5.62,0,0,0-2.9,2.25A4.43,4.43,0,0,0,7.93,26a.26.26,0,0,0,.25.27h0A.26.26,0,0,0,8.45,26,4.07,4.07,0,0,1,9,24.14a5.29,5.29,0,0,1,2.68-2,7.39,7.39,0,0,1,3.11-.81,6.14,6.14,0,0,1,4,1.25,7.51,7.51,0,0,0-1.85.58,6.08,6.08,0,0,0-1.52.9,6.36,6.36,0,0,0-1.31,1.56A5.7,5.7,0,0,0,11.62,28,5.49,5.49,0,0,0,11,30.73a.28.28,0,0,0,0,.09s0,0,0,0a.18.18,0,0,0,.05.07.2.2,0,0,0,.12.07l1.92.5a9.23,9.23,0,0,0,1.45,2.06,14,14,0,0,0,1.39,1.39.32.32,0,0,0,.17.06.27.27,0,0,0,.21-.09.29.29,0,0,0,0-.37A9.91,9.91,0,0,1,15,33.21a8.47,8.47,0,0,1-1.42-2,.36.36,0,0,0,0-.09,5.49,5.49,0,0,1-.24-.78A5.35,5.35,0,0,1,14.45,26a0,0,0,0,0,0,0l0,0h0a.08.08,0,0,0,0,0h0a4.93,4.93,0,0,1,1.21-1.43,5.33,5.33,0,0,1,1.39-.83A7.78,7.78,0,0,1,19.27,23c.11.11.24.22.34.34a.28.28,0,0,0,.22.11l.11,0a2.68,2.68,0,0,1,1.54-.13c1.62.41,2.77,2.66,2.75,5.37a.26.26,0,0,0,.25.26h0a.26.26,0,0,0,.26-.25c0-3-1.26-5.42-3.14-5.88A3.1,3.1,0,0,0,19.89,22.88ZM7.4,34.46a8,8,0,0,0-.3,1.27h0a8.71,8.71,0,0,0-2,3.75.27.27,0,0,0,.2.32h.06a.25.25,0,0,0,.25-.2,8.13,8.13,0,0,1,1.42-3v.27c0,.27,0,.46.11,1.07l0,.19c.11.92.2,1.66.26,2.14a.26.26,0,0,0,.25.23h0a.27.27,0,0,0,.22-.29c-.06-.48-.14-1.22-.26-2.14l0-.19c-.07-.6-.09-.78-.1-1a5.56,5.56,0,0,1,0-.94,6,6,0,0,1,.31-1.3l0-.07a16.42,16.42,0,0,0,.53-5.21.26.26,0,0,0-.27-.26.27.27,0,0,0-.25.27,16,16,0,0,1-.5,5Z" transform="translate(-0.77 -0.39)"/><path d="M7.4,82c-.44-.47-.87-1-1.27-1.45a.26.26,0,0,0-.46.24l-.19.12c-.34-.61-.86-1.65-1.62-3.38A36,36,0,0,1,1.63,71a20.76,20.76,0,0,1-.69-4.28,30.29,30.29,0,0,1,.18-4.29l0-.33a0,0,0,0,0,0,0,9.1,9.1,0,0,0,.94.46,16.72,16.72,0,0,0,1.12,3.49c1,2.22,1.54,3.43,2.88,4.19a7.4,7.4,0,0,0,1,.44l.21.07s0,0,0,0a1.73,1.73,0,0,1,1,.77,1.32,1.32,0,0,1,.17.58,3.09,3.09,0,0,0,.25,1c.22.53.89,1.78,2,2a1.52,1.52,0,0,0,.8-.1,2.41,2.41,0,0,1,.73-.16,3.72,3.72,0,0,1,1.78.42,7.91,7.91,0,0,1,3.11,2.51.26.26,0,0,0,.2.1.3.3,0,0,0,.16,0,.25.25,0,0,0,.11-.21l.68-.12a3.54,3.54,0,0,0,.38,1.19,5.06,5.06,0,0,0,3.38,2.91,3.92,3.92,0,0,0,.67,0l1.28,1.84q-.27.16-.54.3a9,9,0,0,1-2.93.93h0a13.38,13.38,0,0,1-2.11,0,13.83,13.83,0,0,1-5-1.1,7.37,7.37,0,0,1-1.88-1.26.23.23,0,0,0-.09-.08L11.26,82a6.05,6.05,0,0,1-.75-1,7.76,7.76,0,0,1-1-2.45.26.26,0,1,0-.5.11,8.3,8.3,0,0,0,.87,2.28H9.78l-.1,0c-.75.46-.82.62-.84.69a.78.78,0,0,0,0,.57.35.35,0,0,1,0,.26.55.55,0,0,1-.41.34C8.29,82.88,8,82.7,7.4,82Z" transform="translate(-0.77 -0.39)"/><line class="cls-5" x1="78" y1="51" x2="80.29" y2="52.25"/><line class="cls-5" x1="80.08" y1="74.06" x2="82.61" y2="74.12"/><line class="cls-5" x1="79.05" y1="35.89" x2="79.8" y2="35.86"/><line class="cls-5" x1="71.69" y1="84.68" x2="72.68" y2="86.55"/><line class="cls-5" x1="66.84" y1="61.46" x2="66.84" y2="61.48"/><line class="cls-5" x1="64.76" y1="87.88" x2="66.05" y2="90.05"/><line class="cls-5" x1="56.7" y1="29.77" x2="59.57" y2="30.45"/><line class="cls-5" x1="56.51" y1="99.95" x2="57.36" y2="101.85"/><line class="cls-5" x1="54.4" y1="29.52" x2="54.44" y2="27.37"/><line class="cls-5" x1="52.3" y1="14.12" x2="53.44" y2="11.85"/><line class="cls-5" x1="50.47" y1="90.87" x2="52.13" y2="92.88"/><line class="cls-5" x1="81.86" y1="59.89" x2="83.02" y2="59.73"/><line class="cls-5" x1="79.17" y1="80.91" x2="80.35" y2="80.89"/><line class="cls-5" x1="76.54" y1="79.96" x2="76.66" y2="81.17"/><line class="cls-5" x1="74.08" y1="39.5" x2="74.09" y2="39.5"/><line class="cls-5" x1="69.5" y1="84.13" x2="69.5" y2="84.14"/><line class="cls-5" x1="67.61" y1="21.87" x2="67.66" y2="23.42"/><line class="cls-5" x1="67.02" y1="83.34" x2="67.03" y2="83.34"/><line class="cls-5" x1="66.57" y1="63.99" x2="67.88" y2="63.79"/><line class="cls-5" x1="65.93" y1="12.5" x2="66.49" y2="11.88"/><line class="cls-5" x1="62.87" y1="9.79" x2="62.87" y2="9.8"/><line class="cls-5" x1="62.17" y1="16.6" x2="62.81" y2="17.7"/><line class="cls-5" x1="61.76" y1="59.82" x2="63.2" y2="57.41"/><line class="cls-5" x1="54.81" y1="82.02" x2="56.77" y2="82.04"/><line class="cls-5" x1="53.92" y1="17.7" x2="55.07" y2="16"/><line class="cls-5" x1="52.42" y1="96.71" x2="53.78" y2="96.19"/><line class="cls-5" x1="41.18" y1="21.81" x2="41.19" y2="21.81"/><line class="cls-5" x1="41.86" y1="62.84" x2="44.89" y2="62.95"/><path class="cls-5" d="M44.15,87.87c.23,1.13.35,1.19.47,2.09a12.7,12.7,0,0,1,.08,1.51c0,.39,0,.83-.08,1.35a27.25,27.25,0,0,1-.74,3.57c0,.06,0,.12,0,.19-.11.53-.21,1-.28,1.45a8,8,0,0,0,1.7,7.25,7.43,7.43,0,0,0,3.12,2.61,7.11,7.11,0,0,0,4.67,0c1.49-.44,1.42-.85,3.77-2,2-.91,2.17-.7,4-1.55A27.21,27.21,0,0,0,65,101.9a35.65,35.65,0,0,0,3.79-2.81l.49-.43a20.44,20.44,0,0,0,4.16-4.55c.25-.39.57-.94,1.29-2.08a16.19,16.19,0,0,1,2-2.72c.93-.92,1.17-.72,1.81-1.56a4.07,4.07,0,0,0,.32-.44,9.07,9.07,0,0,0,.86-1.89c.36-1,.34-1.24.64-2.22a14.61,14.61,0,0,1,.79-1.92l.39-.8s1-2,1.81-4.15a32.17,32.17,0,0,0,1.56-4.42,30.81,30.81,0,0,0,.78-4.29A33,33,0,0,0,86,62.43a12.78,12.78,0,0,0-.25-2.71,15.39,15.39,0,0,1-.14-2.09c0-1.61,0-2.58-.65-3.38-.39-.45-.85-.65-.91-1.17a.65.65,0,0,1,.09-.44,9.64,9.64,0,0,0,.69-1.12c.3-.79,0-1.39-.26-2.6a6,6,0,0,1-.14-.87" transform="translate(-0.77 -0.39)"/><path class="cls-5" d="M84.47,48c0-.46,0-.88-.25-2.49-.44-3.21-.66-4.81-1.3-5.71-.89-1.27-1.75-1.33-2.2-2.73a2.88,2.88,0,0,1-.16-.86,4.79,4.79,0,0,0-.24-1.35c-.32-1.1-.62-1.31-.9-2.46,0-.19-.06-.31-.1-.46s-.06-.53-.16-1.24c0,0-.18-1.18-.4-2.34a15,15,0,0,0-1.28-4.28c-1-1.93-1.61-1.51-2.61-3.51-.64-1.29-.4-1.48-1.3-3.5a26.51,26.51,0,0,0-1.42-2.72,18.78,18.78,0,0,0-1.82-2.73,22.47,22.47,0,0,0-2.73-2.6C66,7.63,65.13,6.91,64.48,6.72a6.88,6.88,0,0,0-1.39-.18,5.5,5.5,0,0,1-1.33-.34,4.79,4.79,0,0,1-1.7-1c-.48-.48-.4-.66-.77-1-.56-.58-1.14-.55-3.12-.92a12.56,12.56,0,0,1-2.72-.64c-1.17-.53-1.07-.94-2.08-1.44A6.59,6.59,0,0,0,47.3.83h-.06c-.85.17-2.56.49-2.88,1.39a1.86,1.86,0,0,0,.09.75c0,.13.07.28.11.46.34,1.4.44,1.45.49,1.9.08.65-.17.71-.57,2.42-.2.92-.2,1-.52,2.46-.27,1.27-.4,1.91-.52,2.34-.57,2.26-.85,2.32-.9,3.39a8,8,0,0,0,.38,2.6c.37,1.23.66,1.29.92,2.46A7.55,7.55,0,0,1,44,22.2,4.3,4.3,0,0,1,44,23.47c-.15.91-.42.9-.64,1.82-.3,1.22.1,1.48,0,3.11a26.34,26.34,0,0,1-.52,2.74,19.39,19.39,0,0,0-.52,2.59c-.08,1.39.29,1.48.26,2.86,0,1.65-.56,1.64-.52,3.12a5.65,5.65,0,0,0,.52,2.52c.08.11.13.23.21.34l.17.25c.51.61,1,.76,1,1.3,0,.31-.14.5-.39.83a5.64,5.64,0,0,1-.7,3c-.07.12-.18.22-.26.34a5.8,5.8,0,0,1,.45,1.55c.13,1.11-.18,1.23-.14,2.72,0,1.2.25,1.1.26,2.08,0,1.49-.44,1.9-.52,3.37a7.28,7.28,0,0,0,.23,1.7,5.6,5.6,0,0,1,0,.64,18.08,18.08,0,0,1-.26,2.47c0,.15,0,.28,0,.41-.21,1.51-.28,1.83-.07,2.31.29.69.69.7.78,1.31a1.27,1.27,0,0,1,0,.39c-.09.4-.36.73-.52,1.42a4.8,4.8,0,0,0,0,1.82c.27,2.5,1.17,3.08.78,4.41-.2.68-.44.54-.66,1.3a6.29,6.29,0,0,0,.26,3.12,18.6,18.6,0,0,1,.66,2.61c.08,1-.13,1-.14,2.32a16.78,16.78,0,0,0,.4,3.39c0,.08,0,.16,0,.22" transform="translate(-0.77 -0.39)"/><path class="cls-5" d="M63.05,11.17c0-.34-.08-.6.13-.81a.65.65,0,0,1,.46-.18,1.34,1.34,0,0,1,.4,0c.36,0,.7.11.83-.09S64.69,9.25,64,8l-.87-1.48h0" transform="translate(-0.77 -0.39)"/><path class="cls-5" d="M46.82,16a9.43,9.43,0,0,1,2-2.35,5.81,5.81,0,0,1,3.12-1.68,4.72,4.72,0,0,1,2.32.32l.54.2c1.52.58,1.66,1.13,3.24,1.68a4.25,4.25,0,0,0,2.33.39,3.68,3.68,0,0,0,.7-.2,5,5,0,0,0,.52-.25,3.09,3.09,0,0,0,1.52-1.88,2.62,2.62,0,0,0,0-1" transform="translate(-0.77 -0.39)"/><path class="cls-5" d="M44,22.2a7.2,7.2,0,0,1,3-1.71c1-.25,2.64-.7,3.77.26a1.54,1.54,0,0,1,.28.29,2.51,2.51,0,0,1,.62,1.66A3.11,3.11,0,0,1,51.3,24a2.76,2.76,0,0,0-.19.42,13.92,13.92,0,0,0-.52,2.08c-.17.72-.33,1.26-.46,1.68-.36,1.17-.54,1.46-.32,2s.74.53,1.3,1.56a4.63,4.63,0,0,1,.52,1.42c.19,1.07-.14,1.67.12,1.82s.59-.36,1.44-.65A3.66,3.66,0,0,1,55,34.12a4,4,0,0,1,2.07,1.3,6.54,6.54,0,0,1,1.56,2.07,5.34,5.34,0,0,1,.44,2.15,13.29,13.29,0,0,1-.18,1.89c-.09.6-.25,1.23-.25,1.23s-.13.51-.3,1a13.41,13.41,0,0,1-1.14,2.43" transform="translate(-0.77 -0.39)"/><path class="cls-5" d="M42.89,59.71a5.76,5.76,0,0,1,2.77-1.3,5.9,5.9,0,0,1,4,.78" transform="translate(-0.77 -0.39)"/><path class="cls-5" d="M45.66,63.34A23.47,23.47,0,0,0,49,64c1.73.21,2.58.32,3.24,0a1.67,1.67,0,0,0,.24-.15,6.57,6.57,0,0,0,.63-.68,9.61,9.61,0,0,1,.87-.89,2.44,2.44,0,0,1,1-.62c.2,0,.24,0,.77-.17a4.66,4.66,0,0,0,.78-.22,3.05,3.05,0,0,0,.65-.32,2.75,2.75,0,0,0,1.17-1.49,3.57,3.57,0,0,0,.08-.71,12.57,12.57,0,0,0-.08-1.63,2.86,2.86,0,0,1,.65-1.7" transform="translate(-0.77 -0.39)"/><path class="cls-5" d="M76.58,66.49a.8.8,0,0,0-.15-.29c-.44-.53-1.62-.54-2.73.26" transform="translate(-0.77 -0.39)"/><path class="cls-5" d="M68.51,63.35c0,.23.08.5.14.83,0,.17,0,.36.08.56s0,.19,0,.28c.39,2.47.59,2.63.38,3.26-.41,1.28-1.69,1.84-1.55,2.07s1.22-.64,2.73-.52c1.18.11,1.32.72,2.34.65A4.65,4.65,0,0,0,75,69.31c.76-.53,1.18-.83,1.43-1.43a2.3,2.3,0,0,0,.16-1.39" transform="translate(-0.77 -0.39)"/><path class="cls-5" d="M50.07,71.13c-.48-.64-.93-1.46-.64-2.08.17-.39.53-.37,1.28-.91,1.07-.75,1-1.23,1.82-1.68a4.79,4.79,0,0,1,2.08-.4c3.27-.26,3.07-.19,3.38-.25A7.79,7.79,0,0,0,62,64c1.19-1.12,1.13-2,2.33-2.47a3.87,3.87,0,0,1,2.08-.13,3,3,0,0,1,1.18.48,1.79,1.79,0,0,1,.38.31,2,2,0,0,1,.52,1.16" transform="translate(-0.77 -0.39)"/><path class="cls-5" d="M43.84,81.92a3.25,3.25,0,0,0,2.46-.79c.84-.8.5-1.68,1.43-2.6a2.15,2.15,0,0,1,.51-.37,11.73,11.73,0,0,1,1.7-.67,7.69,7.69,0,0,1,3.11-.64c.14,0,.31,0,.51.05a6,6,0,0,1,1.8.55h0a4.2,4.2,0,0,1,.55.29" transform="translate(-0.77 -0.39)"/><path class="cls-5" d="M51.23,91.27a13.22,13.22,0,0,1,1-2.48c.8-1.45,1.26-1.59,1.7-2.73.63-1.63,0-2.11.64-3a1.83,1.83,0,0,1,1-.67,5.54,5.54,0,0,0,2.28-1,6.7,6.7,0,0,0,1.69-2.21c.23-.43.46-.84.65-1.23a3.55,3.55,0,0,0,.38-2.27A3.88,3.88,0,0,0,59,73.34" transform="translate(-0.77 -0.39)"/><path class="cls-5" d="M61.88,40.49h0s.29-.06,1.1-.29a2.8,2.8,0,0,0,.36-.24l.23-.25c.39-.55.25-1.18,0-2.74a10,10,0,0,0-.92-3.5,4.3,4.3,0,0,0-1.16-1.55c-.6-.48-1.11-.55-1.18-.91a.43.43,0,0,1,0-.16c.07-.24.32-.57,1-1,0-.5-.08-.9-.12-1.23-.18-1.13-.39-1.37-.4-1.37-.46-.52-.89-.23-1.29-.65-.77-.81.5-2.28.39-4.54a7.25,7.25,0,0,0-.71-2.6,5.54,5.54,0,0,0-1.11-1.56l-.11-.1a2.88,2.88,0,0,0-.52-.4c-.34-.22-.8-.45-1.65-1l-.7-.45c-.88-.58-1.6-1.08-2.08-1.44h0" transform="translate(-0.77 -0.39)"/><path class="cls-5" d="M52.57,40.25a5.36,5.36,0,0,1-.56.88,5.13,5.13,0,0,1-1.62,1.43,4.5,4.5,0,0,1-2.08.72c-.83,0-.84-.24-1.75-.2s-1.2.36-2,.33c-.64,0-.59.71-.59.71a7.16,7.16,0,0,1,2.13-.52,4.7,4.7,0,0,1,2,.18,4.55,4.55,0,0,1,2,1.38,8.66,8.66,0,0,1,1.82,3.46c.2.79.21,1.32.69,1.74a2,2,0,0,0,1.47.43,1.82,1.82,0,0,0,.71-.27,1.76,1.76,0,0,1,.42-.16,3.24,3.24,0,0,1,1.47,0,9,9,0,0,1,3.37,1c1,.51,1.18.88,1.65.78s.31-.3,1.21-1.3a3.86,3.86,0,0,0,.89-1.12,1.19,1.19,0,0,0,.07-.27,1.37,1.37,0,0,0-.14-.67,8,8,0,0,1-.47-3.57,6.11,6.11,0,0,1,.36,1.09c.06.27.14.57.25.91l.06.18c.07.21.13.36.15.42l.2.46a2.36,2.36,0,0,0,.12.26c0,.06.06.11.07.14l.12-.09.83-.6a6.51,6.51,0,0,1,1.9-.87c.78-.18,1.11-.06,1.3-.34a.77.77,0,0,0,.08-.64c0-.17-.1-.36-.16-.58-.57-2-.21-1.92-.7-3a4.25,4.25,0,0,0-1.29-1.91,3.62,3.62,0,0,0-1.82-.69,4.24,4.24,0,0,0-1.35.08,3.79,3.79,0,0,0-1.46.53" transform="translate(-0.77 -0.39)"/><path class="cls-5" d="M52.66,40.06l0,.07" transform="translate(-0.77 -0.39)"/><path class="cls-5" d="M52.63,40.13a.24.24,0,0,1,0-.07h0v0" transform="translate(-0.77 -0.39)"/><path class="cls-5" d="M52.63,40.13a.43.43,0,0,1-.06.12" transform="translate(-0.77 -0.39)"/><path class="cls-5" d="M54.76,50.52c-.24-.09-.59-.23-1-.42a3.55,3.55,0,0,1-1.1-.66c-.56-.68-.13-1.32-.66-2.46a6.42,6.42,0,0,0-1-1.5c-.48-.54-.8-.7-.85-1.1s.34-.83.78-1.36a9.87,9.87,0,0,0,1.66-2.77" transform="translate(-0.77 -0.39)"/><path class="cls-5" d="M65.33,24,67,23.86c.58,0,1-.06,1.42-.05a4.78,4.78,0,0,1,1.44.12,4.64,4.64,0,0,1,1.89,1,5.6,5.6,0,0,1,1.43,2.34A6.25,6.25,0,0,1,73.77,30c0,1.13-.47,1.83-.2,2s.49-.19,1.3-.52a4.28,4.28,0,0,1,2.21-.39,6.39,6.39,0,0,1,1.62.59,6.73,6.73,0,0,1,.62.32h0" transform="translate(-0.77 -0.39)"/><path class="cls-5" d="M46.5,7.56a5.47,5.47,0,0,0,2,1.11,7.82,7.82,0,0,0,2.78.26,18.53,18.53,0,0,0,2.48-.19" transform="translate(-0.77 -0.39)"/><path class="cls-5" d="M52.53,5.81a15.86,15.86,0,0,1,2.86.07,16.68,16.68,0,0,1,2.53.52,16.17,16.17,0,0,1,3.64,1.42A15.77,15.77,0,0,1,63.38,9" transform="translate(-0.77 -0.39)"/><path class="cls-5" d="M66.69,12.89a2.54,2.54,0,0,1,.39,1.75c-.11.58-.45,1-.26,1.24s.23.08.78.19c0,0,.39.09.71.2a3.15,3.15,0,0,1,1.1.71l.77.67a10.27,10.27,0,0,1,1.25,1.28,9,9,0,0,1,1,1.62c.13.28.22.52.29.71h0" transform="translate(-0.77 -0.39)"/><path class="cls-5" d="M47.08,91.33a5.54,5.54,0,0,0,1.17,1.16,5.86,5.86,0,0,0,2,.92,3.31,3.31,0,0,0,2,.18,2.06,2.06,0,0,0,.63-.32,1.27,1.27,0,0,1,.87-.38c.48,0,.53.3,1.1.52a4.52,4.52,0,0,0,2.6-.26,4.79,4.79,0,0,0,1.82-.72,2.7,2.7,0,0,0,1-1.24,2.3,2.3,0,0,0,.13-.58" transform="translate(-0.77 -0.39)"/><path class="cls-5" d="M49.11,96.5a5,5,0,0,1,.76.54c.45.34,1.34.59,3.32.06" transform="translate(-0.77 -0.39)"/><path class="cls-5" d="M46.61,95.15A3.18,3.18,0,0,0,47.8,96c.38.16.49.11,1,.32a3.27,3.27,0,0,1,.33.18" transform="translate(-0.77 -0.39)"/><path class="cls-5" d="M44.69,91.45v0a8.15,8.15,0,0,0,.56,1.6,7.17,7.17,0,0,0,.66,1.18,9.25,9.25,0,0,0,.6.8" transform="translate(-0.77 -0.39)"/><path class="cls-5" d="M43.56,98c.06.37.17.9.34,1.54.25.92.38,1.38.65,1.55.55.39,1.06-.19,2,.14a2.69,2.69,0,0,1,1.17,1c.61.86.36,1.32.84,1.82a2.91,2.91,0,0,0,2.28.52,4.37,4.37,0,0,0,3-1.11.85.85,0,0,0,.29-.55.93.93,0,0,0-.46-.75,1.52,1.52,0,0,0-.29-.2" transform="translate(-0.77 -0.39)"/><path class="cls-5" d="M62.93,100.62a3.25,3.25,0,0,0,1.94-.4c.46-.27.53-.5.79-.68a1.35,1.35,0,0,1,.32-.16c.62-.26,1.08,0,1.78-.07a3.5,3.5,0,0,0,1-.22" transform="translate(-0.77 -0.39)"/><path class="cls-5" d="M60.73,99.45a1.73,1.73,0,0,0,.45.57,2.21,2.21,0,0,0,1.22.52l.52.08" transform="translate(-0.77 -0.39)"/><path class="cls-5" d="M54.55,96.58a1.58,1.58,0,0,1,.82-.07.81.81,0,0,1,.35.14,1.47,1.47,0,0,1,.52.78,4.47,4.47,0,0,1,.19,1.36,2.92,2.92,0,0,0,.85,1.56" transform="translate(-0.77 -0.39)"/><path class="cls-5" d="M65.78,93.07a1.85,1.85,0,0,1,.39,1.56,2,2,0,0,1-.78.85,5.12,5.12,0,0,1-1,.59" transform="translate(-0.77 -0.39)"/><path class="cls-5" d="M78.82,87.31a4.23,4.23,0,0,0-2.32.44,3,3,0,0,0-1.17,1c-.4.61-.18.93-.52,1.56a3.19,3.19,0,0,1-1.49,1.3,7.25,7.25,0,0,1-2.41.52l-2.34.32" transform="translate(-0.77 -0.39)"/><path class="cls-5" d="M67.79,83.73a10.26,10.26,0,0,1,1.3.33,9.15,9.15,0,0,1,1.18.46,4.12,4.12,0,0,0,.52.24,4.4,4.4,0,0,0,1.67.31,7.83,7.83,0,0,0,2.35-.43,3.6,3.6,0,0,0,1.62-.91,3.79,3.79,0,0,0,.59-.91A2.18,2.18,0,0,0,77.3,82c0-.27,0-.43,0-.48a.11.11,0,0,1,.08,0,2,2,0,0,0,.66.36,1.19,1.19,0,0,0,.56-.14c.29-.12.73-.29,1.3-.48" transform="translate(-0.77 -0.39)"/><path class="cls-5" d="M73.3,79c.17.17.4.4.71.67a3.59,3.59,0,0,0,1.12.78,5.07,5.07,0,0,0,1.65,0l.53-.05.37,0" transform="translate(-0.77 -0.39)"/><path class="cls-5" d="M44.59,3a5.09,5.09,0,0,1,1.39,0,6,6,0,0,1,1.82.66,9.26,9.26,0,0,1,2,1.19c.77.63.95,1,1.56,1.17a1.86,1.86,0,0,0,1.16-.13" transform="translate(-0.77 -0.39)"/><path class="cls-5" d="M84,59.07a2.34,2.34,0,0,0-1.35.12,8.65,8.65,0,0,0-1.07.74l-.08.06a3.66,3.66,0,0,1-1.41.41" transform="translate(-0.77 -0.39)"/><path class="cls-5" d="M74.86,39.89a1.51,1.51,0,0,0,.37.53,2.09,2.09,0,0,0,.84.46,2.29,2.29,0,0,0,1.06,0" transform="translate(-0.77 -0.39)"/><path class="cls-5" d="M59.55,42.05a2.83,2.83,0,0,1,.33-.65,2.61,2.61,0,0,1,2-.91" transform="translate(-0.77 -0.39)"/><path class="cls-5" d="M58.35,43.77a6,6,0,0,0,1-1.34c.08-.15.13-.26.19-.36" transform="translate(-0.77 -0.39)"/><path class="cls-5" d="M63.64,10.19a4.93,4.93,0,0,1,1.17.39,10.26,10.26,0,0,1,1.49,1c.23.17.55.4,1,.65l.42.26" transform="translate(-0.77 -0.39)"/><path class="cls-5" d="M57.66,10.94a2.22,2.22,0,0,1,1.18,0,2.61,2.61,0,0,1,1.22,1,21.66,21.66,0,0,1,1.48,2.08" transform="translate(-0.77 -0.39)"/><path class="cls-5" d="M59.23,19.45a8.24,8.24,0,0,1,1.23-.52l.46-.14c.95-.24,1.16-.11,1.94-.38a4.28,4.28,0,0,0,.72-.32,2.56,2.56,0,0,1,1.1-.52,4.16,4.16,0,0,1,1.75.19,13.07,13.07,0,0,1,2.34.79" transform="translate(-0.77 -0.39)"/><path class="cls-5" d="M51.13,21a9.9,9.9,0,0,0,1.14-.69,6.64,6.64,0,0,0,1.11-.84,8.56,8.56,0,0,0,1.3-1.42" transform="translate(-0.77 -0.39)"/><path class="cls-5" d="M51.3,24c.25-.17.63-.41,1.11-.68.71-.4,1.22-.63,1.82-.91s1.29-.62,2.2-1.1" transform="translate(-0.77 -0.39)"/><path class="cls-5" d="M59.55,26.59a6.35,6.35,0,0,0-1.63-.07,4.51,4.51,0,0,0-1.75.46,3.5,3.5,0,0,0-1,.78" transform="translate(-0.77 -0.39)"/><path class="cls-5" d="M47,5.49l.16,0,.69.21c.93.3,1.4.44,1.75.58,1.28.52,1.07.86,1.94,1.11s1.63-.06,2,.38a1.22,1.22,0,0,1,.2.92" transform="translate(-0.77 -0.39)"/><path class="cls-5" d="M61.24,28.61a7.4,7.4,0,0,1,1.56-.79,10.33,10.33,0,0,1,2.4-.45c2.64-.32,3.16-.12,3.51.07a2.74,2.74,0,0,1,1,.84" transform="translate(-0.77 -0.39)"/><path class="cls-5" d="M68.25,33.67a7.84,7.84,0,0,1,1.42-.39,9.9,9.9,0,0,1,2.22-.07,9.55,9.55,0,0,1,2.27.2c.51.23.66.49,1.82,1.76.55.59,1,1.07,1.3,1.36" transform="translate(-0.77 -0.39)"/><path class="cls-5" d="M50.13,28.14a3.08,3.08,0,0,1,.92,1.12,2.7,2.7,0,0,1,.26,1,3.49,3.49,0,0,1-.2,1.42" transform="translate(-0.77 -0.39)"/><path class="cls-5" d="M64.35,61.52a5.39,5.39,0,0,1-1-.65c-.45-.36-.66-.66-.85-.66h-.06c-.18.07-.29.4-.26.65s.32.48.45.85a1.52,1.52,0,0,1-.06,1c-.36,1.15-1.88,1.8-2.4,2a7.45,7.45,0,0,1-3.57.53c-1.18-.07-2.37-.15-3.06-1a2.37,2.37,0,0,1-.43-1.1h0" transform="translate(-0.77 -0.39)"/><path class="cls-5" d="M52.51,63.84a2,2,0,0,1,0,2.62" transform="translate(-0.77 -0.39)"/><path class="cls-5" d="M67.34,64.38A8,8,0,0,1,66.63,67c-.76,1.6-1.58,1.84-2.08,3.44a3.49,3.49,0,0,0-.07,2.41,3.3,3.3,0,0,0,1.37,1.42c1.1.73,1.53.42,2.86,1.18.22.12.66.44,1.56,1.1s1.18.86,1.55,1.16c1,.77,1.21,1.1,1.47,1.23h0a.77.77,0,0,0,.27.07c.28,0,.33-.07,1.82-.79,1-.49,1.09-.49,1.23-.64.56-.62.16-1.16.66-2A2.93,2.93,0,0,1,79,74.31a2.88,2.88,0,0,1,1.82.14" transform="translate(-0.77 -0.39)"/><path class="cls-5" d="M57.54,82.43h0a4.62,4.62,0,0,0,0,2.14,14.83,14.83,0,0,0,1,2.14c.52,1.13.38,1.25.9,2.33a6.15,6.15,0,0,0,.91,1.56,1.68,1.68,0,0,0,.33.32,3.59,3.59,0,0,0,2.08.78,5.71,5.71,0,0,0,3.11-.84c.33-.14.63-.29.91-.42,2-.92,3-1.41,3.57-1.72,1.53-.85,2.15-1.32,3.06-1.79.3-.15.63-.31,1-.48a20.61,20.61,0,0,1,2.34-.85" transform="translate(-0.77 -0.39)"/><path class="cls-5" d="M51.89,100.74A7,7,0,0,0,53.26,102l.05,0a1.37,1.37,0,0,0,.2.13l.09.07a3.94,3.94,0,0,0,1.66.71c.88.15,1.54-.14,2.86-.7s1.9-.83,2.28-1.5a2.77,2.77,0,0,0,.33-1.29,1,1,0,0,0-.27-.66,1.27,1.27,0,0,0-1-.25" transform="translate(-0.77 -0.39)"/><path class="cls-5" d="M66.21,94c.31.06.64.12,1,.17a10.13,10.13,0,0,0,1.94.07" transform="translate(-0.77 -0.39)"/><path class="cls-5" d="M60.26,91.19a2.5,2.5,0,0,1,.32.84,2.63,2.63,0,0,1,0,1.12c0,.24-.2.66-1.22,1.48a8.18,8.18,0,0,1-2.47,1.5,7.67,7.67,0,0,1-1.52.38c-.3,0-.58.06-.82.07" transform="translate(-0.77 -0.39)"/><path class="cls-5" d="M67.61,84.88a.76.76,0,0,1-.08.21,7.42,7.42,0,0,1-1,1.76l-1,1.42" transform="translate(-0.77 -0.39)"/><path class="cls-5" d="M60.2,78a10.4,10.4,0,0,0-.32,1.56c-.13.91-.18,1.37.06,1.69s.63.33,1.56.52a8.64,8.64,0,0,0,1.75.2c.46,0,.4-.07.85-.08a9.67,9.67,0,0,1,2,.26c.85.18,1,.26,1.16.4a1.48,1.48,0,0,1,.46.84,1.35,1.35,0,0,1,0,.39,2.89,2.89,0,0,1-.16,1.15" transform="translate(-0.77 -0.39)"/><path class="cls-5" d="M53.05,69.38a11,11,0,0,1,.59,1.1,8.67,8.67,0,0,1,.78,2,6,6,0,0,1,.13,1.7,5.64,5.64,0,0,1-.18,1,5.76,5.76,0,0,1-.81,1.72" transform="translate(-0.77 -0.39)"/><path class="cls-5" d="M79.08,34.08a6.08,6.08,0,0,1,.56,1.25,5.19,5.19,0,0,1,.17,1,5.72,5.72,0,0,1,0,1.09,5.19,5.19,0,0,1-.34,1.42,6.34,6.34,0,0,1-1.13,1.91" transform="translate(-0.77 -0.39)"/><path class="cls-5" d="M74.09,38a2.33,2.33,0,0,1,.7,1.05,2.06,2.06,0,0,1,.06.83q0,.26-.06.6a11.18,11.18,0,0,1-.26,1.28" transform="translate(-0.77 -0.39)"/><path class="cls-5" d="M70,20.58a1.07,1.07,0,0,0-.21.13c-.92.6-.93,1.55-1.39,1.55s-.46-.48-1-1.25A7.27,7.27,0,0,0,66,19.67" transform="translate(-0.77 -0.39)"/><path class="cls-5" d="M76.22,25.46c-.38-.61-.75-1.15-1.09-1.6A15.93,15.93,0,0,0,74,22.48c-.12-.14-.13-.14-1.25-1.21h0c-.77-.74-.82-.79-1-.85a2.08,2.08,0,0,0-1.72.17" transform="translate(-0.77 -0.39)"/><path class="cls-5" d="M63.38,9a1.6,1.6,0,0,1,.54.66,1.39,1.39,0,0,1,.12.53" transform="translate(-0.77 -0.39)"/><path class="cls-5" d="M51,54.59a3.89,3.89,0,0,1,.69.4,3.85,3.85,0,0,1,.86.9,4.09,4.09,0,0,1,.7,1.13,3.52,3.52,0,0,1,.22,1.13,3.68,3.68,0,0,1-.22,1.3" transform="translate(-0.77 -0.39)"/><path class="cls-5" d="M79,57.27a2.91,2.91,0,0,1,.47.62c.14.26.09.36.22.52s.45.18.86.38a2.16,2.16,0,0,1,.74.66,1.06,1.06,0,0,1,.12.2,2,2,0,0,1,.15.34,1.53,1.53,0,0,1,.07.29,2,2,0,0,1,0,.38" transform="translate(-0.77 -0.39)"/><path class="cls-5" d="M46.91,98.48a3,3,0,0,1,.35-1,2,2,0,0,1,.6-.74,1.77,1.77,0,0,1,1.24-.21h0" transform="translate(-0.77 -0.39)"/><path class="cls-5" d="M44.14,87.85s0,0,0,0a11.78,11.78,0,0,0,1,1.14,11.39,11.39,0,0,0,1.16,1" transform="translate(-0.77 -0.39)"/><path class="cls-5" d="M47,74.59a2.22,2.22,0,0,0-.08,1c.07.49.3.74.82,1.6.24.39.43.73.55,1h0" transform="translate(-0.77 -0.39)"/><path class="cls-5" d="M61.67,52.09a2.78,2.78,0,0,1,.73.56,3.11,3.11,0,0,1,.78,1.47A25.67,25.67,0,0,1,64,57.8" transform="translate(-0.77 -0.39)"/><path class="cls-5" d="M76,49.89a7.27,7.27,0,0,1,3.79.25,6.66,6.66,0,0,1,2.12,1.25" transform="translate(-0.77 -0.39)"/><path class="cls-5" d="M70.18,17.65a1.64,1.64,0,0,1,.37-1,1.77,1.77,0,0,1,.78-.52" transform="translate(-0.77 -0.39)"/><path class="cls-5" d="M61,14.31a2.39,2.39,0,0,1,.65.46A4,4,0,0,1,62.36,16c.13.24.31.6.56,1" transform="translate(-0.77 -0.39)"/><path class="cls-5" d="M51.56,6l-.42.16-.72.28" transform="translate(-0.77 -0.39)"/><path class="cls-5" d="M70.71,61.72a2.73,2.73,0,0,0-1.77,1.65,2.94,2.94,0,0,0-.21,1.37" transform="translate(-0.77 -0.39)"/><path class="cls-5" d="M61.56,7.82a10.16,10.16,0,0,1,.84,1.5,9.86,9.86,0,0,1,.65,1.85.08.08,0,0,1,0,0v0" transform="translate(-0.77 -0.39)"/><path class="cls-5" d="M59.08,39.64a6.91,6.91,0,0,1,.28.78,6.17,6.17,0,0,1,.19,1.63v0" transform="translate(-0.77 -0.39)"/><path class="cls-5" d="M51.3,30.24h0c.36-.07.82-.14,1.36-.2a16.67,16.67,0,0,1,1.75-.14h.74a14.88,14.88,0,0,1,2.31.25" transform="translate(-0.77 -0.39)"/><path class="cls-5" d="M54.37,75.18a4.93,4.93,0,0,0,.05.69,3,3,0,0,0,.19.91,1.51,1.51,0,0,0,.75.67" transform="translate(-0.77 -0.39)"/><path class="cls-5" d="M43.31,67.24h0c.37-.08.76-.15,1.16-.2s1-.1,1.44-.13" transform="translate(-0.77 -0.39)"/><path class="cls-5" d="M83.31,76.33a3.71,3.71,0,0,0,.07-1.82,3.84,3.84,0,0,0-.65-1.43c-.48-.65-.75-.56-1.17-1.17A3.66,3.66,0,0,1,81,70.42c-.16-.85.08-1-.07-1.82A3,3,0,0,0,80.26,67a3,3,0,0,0-1.5-.92,2.15,2.15,0,0,0-1.74,0,1.58,1.58,0,0,0-.43.43h0" transform="translate(-0.77 -0.39)"/><path class="cls-5" d="M68.51,63.35h0a1.44,1.44,0,0,1,.13-.84,1.61,1.61,0,0,1,.71-.72,2.17,2.17,0,0,1,1.36-.06c1.28.21,1.33.49,2.08.52.17,0,1.42.06,1.89-.65s.09-1.42.19-1.43.09.54.48.89c.09.08.37.29,1.34.25a7.41,7.41,0,0,0,1.69-.25,8.48,8.48,0,0,0,1.71-.65h0c.16-.07.33-.17.49-.26s.56-.33.77-.49a1.91,1.91,0,0,0,.74-.86,1.83,1.83,0,0,0,0-1.34c-.22-.61-.76-.9-1.38-1.26s-1-.34-1.6-.64a5,5,0,0,1-1.74-1.43" transform="translate(-0.77 -0.39)"/><path class="cls-5" d="M67.61,61.86a5.25,5.25,0,0,0,.72-.68,2.38,2.38,0,0,0,.74-1.26,3.56,3.56,0,0,0-.26-1.25c-.17-.62-.32-.92-.22-1s.33.2.7.26c.2,0,.46,0,1.16-.44A5.1,5.1,0,0,0,72,56.25a14.74,14.74,0,0,0,.87-1.52c.65-1,.78-1,.91-1.48.21-.73,0-1.14.3-1.51s.45-.13.87-.39a2.53,2.53,0,0,0,1-1.3,1,1,0,0,0,0-.16,3.76,3.76,0,0,0,.11-1.7,5.6,5.6,0,0,0-.47-1.81" transform="translate(-0.77 -0.39)"/><path class="cls-5" d="M68.67,46.08c.18-.21.48-.53.84-1s.49-.64.82-1A7.32,7.32,0,0,1,71.41,43a5.29,5.29,0,0,1,1.64-.86,6.11,6.11,0,0,1,1.48-.32A2.2,2.2,0,0,1,75.7,42c.35.19.67.52.78.43s-.19-.39-.1-.78a1.21,1.21,0,0,1,.48-.56,2.92,2.92,0,0,1,.27-.17,2.39,2.39,0,0,1,.81-.22,2.54,2.54,0,0,1,.39,0,2.19,2.19,0,0,1,1.57.78,4.64,4.64,0,0,1,.47,1.39c.2.77.16.91.35,1.21s.36.41,1,.86l1.29.87A4,4,0,0,1,84.47,48h0" transform="translate(-0.77 -0.39)"/><path class="cls-5" d="M43.88,96.39a9.82,9.82,0,0,0,.91-.89c.38-.41.49-.61.78-.69a1.1,1.1,0,0,1,1,.24.3.3,0,0,1,.09.1,1.85,1.85,0,0,1,.3.87,6.36,6.36,0,0,1,0,1.65c0,.29,0,.57,0,.81v0c0,.28,0,.52,0,.72" transform="translate(-0.77 -0.39)"/><path class="cls-5" d="M47.11,5.54a1.38,1.38,0,0,1-.5-.2,1.12,1.12,0,0,1-.42-.45" transform="translate(-0.77 -0.39)"/><path class="cls-5" d="M64.56,48.53l-.79,1.14" transform="translate(-0.77 -0.39)"/><path class="cls-5" d="M51.16,6.14l0,.06a2,2,0,0,0-.06.49,1.91,1.91,0,0,0,.1.52" transform="translate(-0.77 -0.39)"/><path class="cls-5" d="M67.61,84.88h0a2.73,2.73,0,0,1,.69-.3,3.85,3.85,0,0,1,1.33-.11l.63.06" transform="translate(-0.77 -0.39)"/><path class="cls-5" d="M60.4,100.74a3.46,3.46,0,0,0,.49.17,3.2,3.2,0,0,0,2-.29h0" transform="translate(-0.77 -0.39)"/><path class="cls-5" d="M70,20.58h0a2,2,0,0,1,.72,0c.23.07.24.12.82.37a3.83,3.83,0,0,0,.78.26l.4,0" transform="translate(-0.77 -0.39)"/><path class="cls-5" d="M57.49,17.39a5.48,5.48,0,0,0,.52.4,5.08,5.08,0,0,0,1,.49c.34.14.83.35,1.43.65" transform="translate(-0.77 -0.39)"/></g></g></svg>